# Procedural Kinetic Task Orb 3D Mesh
v 0.00000 -1.00000 0.00000
v 0.00000 -1.00000 0.00000
v 0.00000 -1.00000 0.00000
v 0.00000 -1.00000 0.00000
v 0.00000 -1.00000 0.00000
v 0.00000 -1.00000 0.00000
v 0.00000 -1.00000 0.00000
v 0.00000 -1.00000 0.00000
v 0.00000 -1.00000 0.00000
v 0.00000 -1.00000 0.00000
v 0.00000 -1.00000 0.00000
v 0.00000 -1.00000 0.00000
v 0.00000 -1.00000 0.00000
v 0.00000 -1.00000 0.00000
v 0.00000 -1.00000 0.00000
v 0.00000 -1.00000 0.00000
v 0.00000 -1.00000 0.00000
v 0.00000 -1.00000 0.00000
v 0.00000 -1.00000 0.00000
v 0.00000 -1.00000 0.00000
v 0.00000 -1.00000 0.00000
v 0.00000 -1.00000 0.00000
v 0.00000 -1.00000 0.00000
v 0.00000 -1.00000 0.00000
v 0.13617 -0.99069 0.00000
v 0.13112 -0.99069 0.03674
v 0.11634 -0.99069 0.07075
v 0.09294 -0.99069 0.09952
v 0.06265 -0.99069 0.12090
v 0.02770 -0.99069 0.13332
v -0.00929 -0.99069 0.13585
v -0.04560 -0.99069 0.12830
v -0.07852 -0.99069 0.11124
v -0.10563 -0.99069 0.08593
v -0.12489 -0.99069 0.05425
v -0.13490 -0.99069 0.01854
v -0.13490 -0.99069 -0.01854
v -0.12489 -0.99069 -0.05425
v -0.10563 -0.99069 -0.08593
v -0.07852 -0.99069 -0.11124
v -0.04560 -0.99069 -0.12830
v -0.00929 -0.99069 -0.13585
v 0.02770 -0.99069 -0.13332
v 0.06265 -0.99069 -0.12090
v 0.09294 -0.99069 -0.09952
v 0.11634 -0.99069 -0.07075
v 0.13112 -0.99069 -0.03674
v 0.13617 -0.99069 -0.00000
v 0.26980 -0.96292 0.00000
v 0.25979 -0.96292 0.07279
v 0.23052 -0.96292 0.14018
v 0.18415 -0.96292 0.19718
v 0.12412 -0.96292 0.23955
v 0.05489 -0.96292 0.26415
v -0.01841 -0.96292 0.26917
v -0.09035 -0.96292 0.25422
v -0.15559 -0.96292 0.22042
v -0.20928 -0.96292 0.17027
v -0.24746 -0.96292 0.10749
v -0.26728 -0.96292 0.03674
v -0.26728 -0.96292 -0.03674
v -0.24746 -0.96292 -0.10749
v -0.20928 -0.96292 -0.17027
v -0.15559 -0.96292 -0.22042
v -0.09035 -0.96292 -0.25422
v -0.01841 -0.96292 -0.26917
v 0.05489 -0.96292 -0.26415
v 0.12412 -0.96292 -0.23955
v 0.18415 -0.96292 -0.19718
v 0.23052 -0.96292 -0.14018
v 0.25979 -0.96292 -0.07279
v 0.26980 -0.96292 -0.00000
v 0.39840 -0.91721 0.00000
v 0.38363 -0.91721 0.10749
v 0.34040 -0.91721 0.20700
v 0.27193 -0.91721 0.29117
v 0.18329 -0.91721 0.35373
v 0.08106 -0.91721 0.39007
v -0.02719 -0.91721 0.39747
v -0.13342 -0.91721 0.37540
v -0.22975 -0.91721 0.32548
v -0.30904 -0.91721 0.25143
v -0.36542 -0.91721 0.15872
v -0.39469 -0.91721 0.05425
v -0.39469 -0.91721 -0.05425
v -0.36542 -0.91721 -0.15872
v -0.30904 -0.91721 -0.25143
v -0.22975 -0.91721 -0.32548
v -0.13342 -0.91721 -0.37540
v -0.02719 -0.91721 -0.39747
v 0.08106 -0.91721 -0.39007
v 0.18329 -0.91721 -0.35373
v 0.27193 -0.91721 -0.29117
v 0.34040 -0.91721 -0.20700
v 0.38363 -0.91721 -0.10749
v 0.39840 -0.91721 -0.00000
v 0.51958 -0.85442 0.00000
v 0.50032 -0.85442 0.14018
v 0.44394 -0.85442 0.26997
v 0.35464 -0.85442 0.37973
v 0.23904 -0.85442 0.46133
v 0.10571 -0.85442 0.50872
v -0.03546 -0.85442 0.51837
v -0.17400 -0.85442 0.48958
v -0.29963 -0.85442 0.42448
v -0.40305 -0.85442 0.32790
v -0.47657 -0.85442 0.20700
v -0.51474 -0.85442 0.07075
v -0.51474 -0.85442 -0.07075
v -0.47657 -0.85442 -0.20700
v -0.40305 -0.85442 -0.32790
v -0.29963 -0.85442 -0.42448
v -0.17400 -0.85442 -0.48958
v -0.03546 -0.85442 -0.51837
v 0.10571 -0.85442 -0.50872
v 0.23904 -0.85442 -0.46133
v 0.35464 -0.85442 -0.37973
v 0.44394 -0.85442 -0.26997
v 0.50032 -0.85442 -0.14018
v 0.51958 -0.85442 -0.00000
v 0.63109 -0.77571 0.00000
v 0.60769 -0.77571 0.17027
v 0.53921 -0.77571 0.32790
v 0.43075 -0.77571 0.46122
v 0.29034 -0.77571 0.56033
v 0.12840 -0.77571 0.61789
v -0.04307 -0.77571 0.62962
v -0.21134 -0.77571 0.59465
v -0.36394 -0.77571 0.51558
v -0.48954 -0.77571 0.39827
v -0.57884 -0.77571 0.25143
v -0.62521 -0.77571 0.08593
v -0.62521 -0.77571 -0.08593
v -0.57884 -0.77571 -0.25143
v -0.48954 -0.77571 -0.39827
v -0.36394 -0.77571 -0.51558
v -0.21134 -0.77571 -0.59465
v -0.04307 -0.77571 -0.62962
v 0.12840 -0.77571 -0.61789
v 0.29034 -0.77571 -0.56033
v 0.43075 -0.77571 -0.46122
v 0.53921 -0.77571 -0.32790
v 0.60769 -0.77571 -0.17027
v 0.63109 -0.77571 -0.00000
v 0.73084 -0.68255 0.00000
v 0.70373 -0.68255 0.19718
v 0.62444 -0.68255 0.37973
v 0.49883 -0.68255 0.53412
v 0.33623 -0.68255 0.64890
v 0.14869 -0.68255 0.71555
v -0.04987 -0.68255 0.72913
v -0.24474 -0.68255 0.68864
v -0.42146 -0.68255 0.59707
v -0.56692 -0.68255 0.46122
v -0.67033 -0.68255 0.29117
v -0.72403 -0.68255 0.09952
v -0.72403 -0.68255 -0.09952
v -0.67033 -0.68255 -0.29117
v -0.56692 -0.68255 -0.46122
v -0.42146 -0.68255 -0.59707
v -0.24474 -0.68255 -0.68864
v -0.04987 -0.68255 -0.72913
v 0.14869 -0.68255 -0.71555
v 0.33623 -0.68255 -0.64890
v 0.49883 -0.68255 -0.53412
v 0.62444 -0.68255 -0.37973
v 0.70373 -0.68255 -0.19718
v 0.73084 -0.68255 -0.00000
v 0.81697 -0.57668 0.00000
v 0.78667 -0.57668 0.22042
v 0.69803 -0.57668 0.42448
v 0.55763 -0.57668 0.59707
v 0.37586 -0.57668 0.72538
v 0.16622 -0.57668 0.79988
v -0.05575 -0.57668 0.81507
v -0.27359 -0.57668 0.76980
v -0.47113 -0.57668 0.66744
v -0.63373 -0.57668 0.51558
v -0.74933 -0.57668 0.32548
v -0.80936 -0.57668 0.11124
v -0.80936 -0.57668 -0.11124
v -0.74933 -0.57668 -0.32548
v -0.63373 -0.57668 -0.51558
v -0.47113 -0.57668 -0.66744
v -0.27359 -0.57668 -0.76980
v -0.05575 -0.57668 -0.81507
v 0.16622 -0.57668 -0.79988
v 0.37586 -0.57668 -0.72538
v 0.55763 -0.57668 -0.59707
v 0.69803 -0.57668 -0.42448
v 0.78667 -0.57668 -0.22042
v 0.81697 -0.57668 -0.00000
v 0.88789 -0.46007 0.00000
v 0.85496 -0.46007 0.23955
v 0.75863 -0.46007 0.46133
v 0.60603 -0.46007 0.64890
v 0.40848 -0.46007 0.78834
v 0.18065 -0.46007 0.86931
v -0.06059 -0.46007 0.88582
v -0.29733 -0.46007 0.83662
v -0.51203 -0.46007 0.72538
v -0.68874 -0.46007 0.56033
v -0.81438 -0.46007 0.35373
v -0.87962 -0.46007 0.12090
v -0.87962 -0.46007 -0.12090
v -0.81438 -0.46007 -0.35373
v -0.68874 -0.46007 -0.56033
v -0.51203 -0.46007 -0.72538
v -0.29733 -0.46007 -0.83662
v -0.06059 -0.46007 -0.88582
v 0.18065 -0.46007 -0.86931
v 0.40848 -0.46007 -0.78834
v 0.60603 -0.46007 -0.64890
v 0.75863 -0.46007 -0.46133
v 0.85496 -0.46007 -0.23955
v 0.88789 -0.46007 -0.00000
v 0.94226 -0.33488 0.00000
v 0.90732 -0.33488 0.25422
v 0.80509 -0.33488 0.48958
v 0.64314 -0.33488 0.68864
v 0.43350 -0.33488 0.83662
v 0.19171 -0.33488 0.92255
v -0.06430 -0.33488 0.94006
v -0.31554 -0.33488 0.88786
v -0.54338 -0.33488 0.76980
v -0.73092 -0.33488 0.59465
v -0.86425 -0.33488 0.37540
v -0.93348 -0.33488 0.12830
v -0.93348 -0.33488 -0.12830
v -0.86425 -0.33488 -0.37540
v -0.73092 -0.33488 -0.59465
v -0.54338 -0.33488 -0.76980
v -0.31554 -0.33488 -0.88786
v -0.06430 -0.33488 -0.94006
v 0.19171 -0.33488 -0.92255
v 0.43350 -0.33488 -0.83662
v 0.64314 -0.33488 -0.68864
v 0.80509 -0.33488 -0.48958
v 0.90732 -0.33488 -0.25422
v 0.94226 -0.33488 -0.00000
v 0.97908 -0.20346 0.00000
v 0.94278 -0.20346 0.26415
v 0.83655 -0.20346 0.50872
v 0.66828 -0.20346 0.71555
v 0.45044 -0.20346 0.86931
v 0.19920 -0.20346 0.95861
v -0.06682 -0.20346 0.97680
v -0.32788 -0.20346 0.92255
v -0.56462 -0.20346 0.79988
v -0.75949 -0.20346 0.61789
v -0.89803 -0.20346 0.39007
v -0.96996 -0.20346 0.13332
v -0.96996 -0.20346 -0.13332
v -0.89803 -0.20346 -0.39007
v -0.75949 -0.20346 -0.61789
v -0.56462 -0.20346 -0.79988
v -0.32788 -0.20346 -0.92255
v -0.06682 -0.20346 -0.97680
v 0.19920 -0.20346 -0.95861
v 0.45044 -0.20346 -0.86931
v 0.66828 -0.20346 -0.71555
v 0.83655 -0.20346 -0.50872
v 0.94278 -0.20346 -0.26415
v 0.97908 -0.20346 -0.00000
v 0.99767 -0.06824 0.00000
v 0.96067 -0.06824 0.26917
v 0.85243 -0.06824 0.51837
v 0.68096 -0.06824 0.72913
v 0.45899 -0.06824 0.88582
v 0.20298 -0.06824 0.97680
v -0.06808 -0.06824 0.99534
v -0.33410 -0.06824 0.94006
v -0.57534 -0.06824 0.81507
v -0.77390 -0.06824 0.62962
v -0.91507 -0.06824 0.39747
v -0.98838 -0.06824 0.13585
v -0.98838 -0.06824 -0.13585
v -0.91507 -0.06824 -0.39747
v -0.77390 -0.06824 -0.62962
v -0.57534 -0.06824 -0.81507
v -0.33410 -0.06824 -0.94006
v -0.06808 -0.06824 -0.99534
v 0.20298 -0.06824 -0.97680
v 0.45899 -0.06824 -0.88582
v 0.68096 -0.06824 -0.72913
v 0.85243 -0.06824 -0.51837
v 0.96067 -0.06824 -0.26917
v 0.99767 -0.06824 -0.00000
v 0.99767 0.06824 0.00000
v 0.96067 0.06824 0.26917
v 0.85243 0.06824 0.51837
v 0.68096 0.06824 0.72913
v 0.45899 0.06824 0.88582
v 0.20298 0.06824 0.97680
v -0.06808 0.06824 0.99534
v -0.33410 0.06824 0.94006
v -0.57534 0.06824 0.81507
v -0.77390 0.06824 0.62962
v -0.91507 0.06824 0.39747
v -0.98838 0.06824 0.13585
v -0.98838 0.06824 -0.13585
v -0.91507 0.06824 -0.39747
v -0.77390 0.06824 -0.62962
v -0.57534 0.06824 -0.81507
v -0.33410 0.06824 -0.94006
v -0.06808 0.06824 -0.99534
v 0.20298 0.06824 -0.97680
v 0.45899 0.06824 -0.88582
v 0.68096 0.06824 -0.72913
v 0.85243 0.06824 -0.51837
v 0.96067 0.06824 -0.26917
v 0.99767 0.06824 -0.00000
v 0.97908 0.20346 0.00000
v 0.94278 0.20346 0.26415
v 0.83655 0.20346 0.50872
v 0.66828 0.20346 0.71555
v 0.45044 0.20346 0.86931
v 0.19920 0.20346 0.95861
v -0.06682 0.20346 0.97680
v -0.32788 0.20346 0.92255
v -0.56462 0.20346 0.79988
v -0.75949 0.20346 0.61789
v -0.89803 0.20346 0.39007
v -0.96996 0.20346 0.13332
v -0.96996 0.20346 -0.13332
v -0.89803 0.20346 -0.39007
v -0.75949 0.20346 -0.61789
v -0.56462 0.20346 -0.79988
v -0.32788 0.20346 -0.92255
v -0.06682 0.20346 -0.97680
v 0.19920 0.20346 -0.95861
v 0.45044 0.20346 -0.86931
v 0.66828 0.20346 -0.71555
v 0.83655 0.20346 -0.50872
v 0.94278 0.20346 -0.26415
v 0.97908 0.20346 -0.00000
v 0.94226 0.33488 0.00000
v 0.90732 0.33488 0.25422
v 0.80509 0.33488 0.48958
v 0.64314 0.33488 0.68864
v 0.43350 0.33488 0.83662
v 0.19171 0.33488 0.92255
v -0.06430 0.33488 0.94006
v -0.31554 0.33488 0.88786
v -0.54338 0.33488 0.76980
v -0.73092 0.33488 0.59465
v -0.86425 0.33488 0.37540
v -0.93348 0.33488 0.12830
v -0.93348 0.33488 -0.12830
v -0.86425 0.33488 -0.37540
v -0.73092 0.33488 -0.59465
v -0.54338 0.33488 -0.76980
v -0.31554 0.33488 -0.88786
v -0.06430 0.33488 -0.94006
v 0.19171 0.33488 -0.92255
v 0.43350 0.33488 -0.83662
v 0.64314 0.33488 -0.68864
v 0.80509 0.33488 -0.48958
v 0.90732 0.33488 -0.25422
v 0.94226 0.33488 -0.00000
v 0.88789 0.46007 0.00000
v 0.85496 0.46007 0.23955
v 0.75863 0.46007 0.46133
v 0.60603 0.46007 0.64890
v 0.40848 0.46007 0.78834
v 0.18065 0.46007 0.86931
v -0.06059 0.46007 0.88582
v -0.29733 0.46007 0.83662
v -0.51203 0.46007 0.72538
v -0.68874 0.46007 0.56033
v -0.81438 0.46007 0.35373
v -0.87962 0.46007 0.12090
v -0.87962 0.46007 -0.12090
v -0.81438 0.46007 -0.35373
v -0.68874 0.46007 -0.56033
v -0.51203 0.46007 -0.72538
v -0.29733 0.46007 -0.83662
v -0.06059 0.46007 -0.88582
v 0.18065 0.46007 -0.86931
v 0.40848 0.46007 -0.78834
v 0.60603 0.46007 -0.64890
v 0.75863 0.46007 -0.46133
v 0.85496 0.46007 -0.23955
v 0.88789 0.46007 -0.00000
v 0.81697 0.57668 0.00000
v 0.78667 0.57668 0.22042
v 0.69803 0.57668 0.42448
v 0.55763 0.57668 0.59707
v 0.37586 0.57668 0.72538
v 0.16622 0.57668 0.79988
v -0.05575 0.57668 0.81507
v -0.27359 0.57668 0.76980
v -0.47113 0.57668 0.66744
v -0.63373 0.57668 0.51558
v -0.74933 0.57668 0.32548
v -0.80936 0.57668 0.11124
v -0.80936 0.57668 -0.11124
v -0.74933 0.57668 -0.32548
v -0.63373 0.57668 -0.51558
v -0.47113 0.57668 -0.66744
v -0.27359 0.57668 -0.76980
v -0.05575 0.57668 -0.81507
v 0.16622 0.57668 -0.79988
v 0.37586 0.57668 -0.72538
v 0.55763 0.57668 -0.59707
v 0.69803 0.57668 -0.42448
v 0.78667 0.57668 -0.22042
v 0.81697 0.57668 -0.00000
v 0.73084 0.68255 0.00000
v 0.70373 0.68255 0.19718
v 0.62444 0.68255 0.37973
v 0.49883 0.68255 0.53412
v 0.33623 0.68255 0.64890
v 0.14869 0.68255 0.71555
v -0.04987 0.68255 0.72913
v -0.24474 0.68255 0.68864
v -0.42146 0.68255 0.59707
v -0.56692 0.68255 0.46122
v -0.67033 0.68255 0.29117
v -0.72403 0.68255 0.09952
v -0.72403 0.68255 -0.09952
v -0.67033 0.68255 -0.29117
v -0.56692 0.68255 -0.46122
v -0.42146 0.68255 -0.59707
v -0.24474 0.68255 -0.68864
v -0.04987 0.68255 -0.72913
v 0.14869 0.68255 -0.71555
v 0.33623 0.68255 -0.64890
v 0.49883 0.68255 -0.53412
v 0.62444 0.68255 -0.37973
v 0.70373 0.68255 -0.19718
v 0.73084 0.68255 -0.00000
v 0.63109 0.77571 0.00000
v 0.60769 0.77571 0.17027
v 0.53921 0.77571 0.32790
v 0.43075 0.77571 0.46122
v 0.29034 0.77571 0.56033
v 0.12840 0.77571 0.61789
v -0.04307 0.77571 0.62962
v -0.21134 0.77571 0.59465
v -0.36394 0.77571 0.51558
v -0.48954 0.77571 0.39827
v -0.57884 0.77571 0.25143
v -0.62521 0.77571 0.08593
v -0.62521 0.77571 -0.08593
v -0.57884 0.77571 -0.25143
v -0.48954 0.77571 -0.39827
v -0.36394 0.77571 -0.51558
v -0.21134 0.77571 -0.59465
v -0.04307 0.77571 -0.62962
v 0.12840 0.77571 -0.61789
v 0.29034 0.77571 -0.56033
v 0.43075 0.77571 -0.46122
v 0.53921 0.77571 -0.32790
v 0.60769 0.77571 -0.17027
v 0.63109 0.77571 -0.00000
v 0.51958 0.85442 0.00000
v 0.50032 0.85442 0.14018
v 0.44394 0.85442 0.26997
v 0.35464 0.85442 0.37973
v 0.23904 0.85442 0.46133
v 0.10571 0.85442 0.50872
v -0.03546 0.85442 0.51837
v -0.17400 0.85442 0.48958
v -0.29963 0.85442 0.42448
v -0.40305 0.85442 0.32790
v -0.47657 0.85442 0.20700
v -0.51474 0.85442 0.07075
v -0.51474 0.85442 -0.07075
v -0.47657 0.85442 -0.20700
v -0.40305 0.85442 -0.32790
v -0.29963 0.85442 -0.42448
v -0.17400 0.85442 -0.48958
v -0.03546 0.85442 -0.51837
v 0.10571 0.85442 -0.50872
v 0.23904 0.85442 -0.46133
v 0.35464 0.85442 -0.37973
v 0.44394 0.85442 -0.26997
v 0.50032 0.85442 -0.14018
v 0.51958 0.85442 -0.00000
v 0.39840 0.91721 0.00000
v 0.38363 0.91721 0.10749
v 0.34040 0.91721 0.20700
v 0.27193 0.91721 0.29117
v 0.18329 0.91721 0.35373
v 0.08106 0.91721 0.39007
v -0.02719 0.91721 0.39747
v -0.13342 0.91721 0.37540
v -0.22975 0.91721 0.32548
v -0.30904 0.91721 0.25143
v -0.36542 0.91721 0.15872
v -0.39469 0.91721 0.05425
v -0.39469 0.91721 -0.05425
v -0.36542 0.91721 -0.15872
v -0.30904 0.91721 -0.25143
v -0.22975 0.91721 -0.32548
v -0.13342 0.91721 -0.37540
v -0.02719 0.91721 -0.39747
v 0.08106 0.91721 -0.39007
v 0.18329 0.91721 -0.35373
v 0.27193 0.91721 -0.29117
v 0.34040 0.91721 -0.20700
v 0.38363 0.91721 -0.10749
v 0.39840 0.91721 -0.00000
v 0.26980 0.96292 0.00000
v 0.25979 0.96292 0.07279
v 0.23052 0.96292 0.14018
v 0.18415 0.96292 0.19718
v 0.12412 0.96292 0.23955
v 0.05489 0.96292 0.26415
v -0.01841 0.96292 0.26917
v -0.09035 0.96292 0.25422
v -0.15559 0.96292 0.22042
v -0.20928 0.96292 0.17027
v -0.24746 0.96292 0.10749
v -0.26728 0.96292 0.03674
v -0.26728 0.96292 -0.03674
v -0.24746 0.96292 -0.10749
v -0.20928 0.96292 -0.17027
v -0.15559 0.96292 -0.22042
v -0.09035 0.96292 -0.25422
v -0.01841 0.96292 -0.26917
v 0.05489 0.96292 -0.26415
v 0.12412 0.96292 -0.23955
v 0.18415 0.96292 -0.19718
v 0.23052 0.96292 -0.14018
v 0.25979 0.96292 -0.07279
v 0.26980 0.96292 -0.00000
v 0.13617 0.99069 0.00000
v 0.13112 0.99069 0.03674
v 0.11634 0.99069 0.07075
v 0.09294 0.99069 0.09952
v 0.06265 0.99069 0.12090
v 0.02770 0.99069 0.13332
v -0.00929 0.99069 0.13585
v -0.04560 0.99069 0.12830
v -0.07852 0.99069 0.11124
v -0.10563 0.99069 0.08593
v -0.12489 0.99069 0.05425
v -0.13490 0.99069 0.01854
v -0.13490 0.99069 -0.01854
v -0.12489 0.99069 -0.05425
v -0.10563 0.99069 -0.08593
v -0.07852 0.99069 -0.11124
v -0.04560 0.99069 -0.12830
v -0.00929 0.99069 -0.13585
v 0.02770 0.99069 -0.13332
v 0.06265 0.99069 -0.12090
v 0.09294 0.99069 -0.09952
v 0.11634 0.99069 -0.07075
v 0.13112 0.99069 -0.03674
v 0.13617 0.99069 -0.00000
v 0.00000 1.00000 0.00000
v 0.00000 1.00000 0.00000
v 0.00000 1.00000 0.00000
v 0.00000 1.00000 0.00000
v 0.00000 1.00000 0.00000
v 0.00000 1.00000 0.00000
v -0.00000 1.00000 0.00000
v -0.00000 1.00000 0.00000
v -0.00000 1.00000 0.00000
v -0.00000 1.00000 0.00000
v -0.00000 1.00000 0.00000
v -0.00000 1.00000 0.00000
v -0.00000 1.00000 -0.00000
v -0.00000 1.00000 -0.00000
v -0.00000 1.00000 -0.00000
v -0.00000 1.00000 -0.00000
v -0.00000 1.00000 -0.00000
v -0.00000 1.00000 -0.00000
v 0.00000 1.00000 -0.00000
v 0.00000 1.00000 -0.00000
v 0.00000 1.00000 -0.00000
v 0.00000 1.00000 -0.00000
v 0.00000 1.00000 -0.00000
v 0.00000 1.00000 -0.00000
vt 0.00000 0.00000
vt 0.04348 0.00000
vt 0.08696 0.00000
vt 0.13043 0.00000
vt 0.17391 0.00000
vt 0.21739 0.00000
vt 0.26087 0.00000
vt 0.30435 0.00000
vt 0.34783 0.00000
vt 0.39130 0.00000
vt 0.43478 0.00000
vt 0.47826 0.00000
vt 0.52174 0.00000
vt 0.56522 0.00000
vt 0.60870 0.00000
vt 0.65217 0.00000
vt 0.69565 0.00000
vt 0.73913 0.00000
vt 0.78261 0.00000
vt 0.82609 0.00000
vt 0.86957 0.00000
vt 0.91304 0.00000
vt 0.95652 0.00000
vt 1.00000 0.00000
vt 0.00000 0.04348
vt 0.04348 0.04348
vt 0.08696 0.04348
vt 0.13043 0.04348
vt 0.17391 0.04348
vt 0.21739 0.04348
vt 0.26087 0.04348
vt 0.30435 0.04348
vt 0.34783 0.04348
vt 0.39130 0.04348
vt 0.43478 0.04348
vt 0.47826 0.04348
vt 0.52174 0.04348
vt 0.56522 0.04348
vt 0.60870 0.04348
vt 0.65217 0.04348
vt 0.69565 0.04348
vt 0.73913 0.04348
vt 0.78261 0.04348
vt 0.82609 0.04348
vt 0.86957 0.04348
vt 0.91304 0.04348
vt 0.95652 0.04348
vt 1.00000 0.04348
vt 0.00000 0.08696
vt 0.04348 0.08696
vt 0.08696 0.08696
vt 0.13043 0.08696
vt 0.17391 0.08696
vt 0.21739 0.08696
vt 0.26087 0.08696
vt 0.30435 0.08696
vt 0.34783 0.08696
vt 0.39130 0.08696
vt 0.43478 0.08696
vt 0.47826 0.08696
vt 0.52174 0.08696
vt 0.56522 0.08696
vt 0.60870 0.08696
vt 0.65217 0.08696
vt 0.69565 0.08696
vt 0.73913 0.08696
vt 0.78261 0.08696
vt 0.82609 0.08696
vt 0.86957 0.08696
vt 0.91304 0.08696
vt 0.95652 0.08696
vt 1.00000 0.08696
vt 0.00000 0.13043
vt 0.04348 0.13043
vt 0.08696 0.13043
vt 0.13043 0.13043
vt 0.17391 0.13043
vt 0.21739 0.13043
vt 0.26087 0.13043
vt 0.30435 0.13043
vt 0.34783 0.13043
vt 0.39130 0.13043
vt 0.43478 0.13043
vt 0.47826 0.13043
vt 0.52174 0.13043
vt 0.56522 0.13043
vt 0.60870 0.13043
vt 0.65217 0.13043
vt 0.69565 0.13043
vt 0.73913 0.13043
vt 0.78261 0.13043
vt 0.82609 0.13043
vt 0.86957 0.13043
vt 0.91304 0.13043
vt 0.95652 0.13043
vt 1.00000 0.13043
vt 0.00000 0.17391
vt 0.04348 0.17391
vt 0.08696 0.17391
vt 0.13043 0.17391
vt 0.17391 0.17391
vt 0.21739 0.17391
vt 0.26087 0.17391
vt 0.30435 0.17391
vt 0.34783 0.17391
vt 0.39130 0.17391
vt 0.43478 0.17391
vt 0.47826 0.17391
vt 0.52174 0.17391
vt 0.56522 0.17391
vt 0.60870 0.17391
vt 0.65217 0.17391
vt 0.69565 0.17391
vt 0.73913 0.17391
vt 0.78261 0.17391
vt 0.82609 0.17391
vt 0.86957 0.17391
vt 0.91304 0.17391
vt 0.95652 0.17391
vt 1.00000 0.17391
vt 0.00000 0.21739
vt 0.04348 0.21739
vt 0.08696 0.21739
vt 0.13043 0.21739
vt 0.17391 0.21739
vt 0.21739 0.21739
vt 0.26087 0.21739
vt 0.30435 0.21739
vt 0.34783 0.21739
vt 0.39130 0.21739
vt 0.43478 0.21739
vt 0.47826 0.21739
vt 0.52174 0.21739
vt 0.56522 0.21739
vt 0.60870 0.21739
vt 0.65217 0.21739
vt 0.69565 0.21739
vt 0.73913 0.21739
vt 0.78261 0.21739
vt 0.82609 0.21739
vt 0.86957 0.21739
vt 0.91304 0.21739
vt 0.95652 0.21739
vt 1.00000 0.21739
vt 0.00000 0.26087
vt 0.04348 0.26087
vt 0.08696 0.26087
vt 0.13043 0.26087
vt 0.17391 0.26087
vt 0.21739 0.26087
vt 0.26087 0.26087
vt 0.30435 0.26087
vt 0.34783 0.26087
vt 0.39130 0.26087
vt 0.43478 0.26087
vt 0.47826 0.26087
vt 0.52174 0.26087
vt 0.56522 0.26087
vt 0.60870 0.26087
vt 0.65217 0.26087
vt 0.69565 0.26087
vt 0.73913 0.26087
vt 0.78261 0.26087
vt 0.82609 0.26087
vt 0.86957 0.26087
vt 0.91304 0.26087
vt 0.95652 0.26087
vt 1.00000 0.26087
vt 0.00000 0.30435
vt 0.04348 0.30435
vt 0.08696 0.30435
vt 0.13043 0.30435
vt 0.17391 0.30435
vt 0.21739 0.30435
vt 0.26087 0.30435
vt 0.30435 0.30435
vt 0.34783 0.30435
vt 0.39130 0.30435
vt 0.43478 0.30435
vt 0.47826 0.30435
vt 0.52174 0.30435
vt 0.56522 0.30435
vt 0.60870 0.30435
vt 0.65217 0.30435
vt 0.69565 0.30435
vt 0.73913 0.30435
vt 0.78261 0.30435
vt 0.82609 0.30435
vt 0.86957 0.30435
vt 0.91304 0.30435
vt 0.95652 0.30435
vt 1.00000 0.30435
vt 0.00000 0.34783
vt 0.04348 0.34783
vt 0.08696 0.34783
vt 0.13043 0.34783
vt 0.17391 0.34783
vt 0.21739 0.34783
vt 0.26087 0.34783
vt 0.30435 0.34783
vt 0.34783 0.34783
vt 0.39130 0.34783
vt 0.43478 0.34783
vt 0.47826 0.34783
vt 0.52174 0.34783
vt 0.56522 0.34783
vt 0.60870 0.34783
vt 0.65217 0.34783
vt 0.69565 0.34783
vt 0.73913 0.34783
vt 0.78261 0.34783
vt 0.82609 0.34783
vt 0.86957 0.34783
vt 0.91304 0.34783
vt 0.95652 0.34783
vt 1.00000 0.34783
vt 0.00000 0.39130
vt 0.04348 0.39130
vt 0.08696 0.39130
vt 0.13043 0.39130
vt 0.17391 0.39130
vt 0.21739 0.39130
vt 0.26087 0.39130
vt 0.30435 0.39130
vt 0.34783 0.39130
vt 0.39130 0.39130
vt 0.43478 0.39130
vt 0.47826 0.39130
vt 0.52174 0.39130
vt 0.56522 0.39130
vt 0.60870 0.39130
vt 0.65217 0.39130
vt 0.69565 0.39130
vt 0.73913 0.39130
vt 0.78261 0.39130
vt 0.82609 0.39130
vt 0.86957 0.39130
vt 0.91304 0.39130
vt 0.95652 0.39130
vt 1.00000 0.39130
vt 0.00000 0.43478
vt 0.04348 0.43478
vt 0.08696 0.43478
vt 0.13043 0.43478
vt 0.17391 0.43478
vt 0.21739 0.43478
vt 0.26087 0.43478
vt 0.30435 0.43478
vt 0.34783 0.43478
vt 0.39130 0.43478
vt 0.43478 0.43478
vt 0.47826 0.43478
vt 0.52174 0.43478
vt 0.56522 0.43478
vt 0.60870 0.43478
vt 0.65217 0.43478
vt 0.69565 0.43478
vt 0.73913 0.43478
vt 0.78261 0.43478
vt 0.82609 0.43478
vt 0.86957 0.43478
vt 0.91304 0.43478
vt 0.95652 0.43478
vt 1.00000 0.43478
vt 0.00000 0.47826
vt 0.04348 0.47826
vt 0.08696 0.47826
vt 0.13043 0.47826
vt 0.17391 0.47826
vt 0.21739 0.47826
vt 0.26087 0.47826
vt 0.30435 0.47826
vt 0.34783 0.47826
vt 0.39130 0.47826
vt 0.43478 0.47826
vt 0.47826 0.47826
vt 0.52174 0.47826
vt 0.56522 0.47826
vt 0.60870 0.47826
vt 0.65217 0.47826
vt 0.69565 0.47826
vt 0.73913 0.47826
vt 0.78261 0.47826
vt 0.82609 0.47826
vt 0.86957 0.47826
vt 0.91304 0.47826
vt 0.95652 0.47826
vt 1.00000 0.47826
vt 0.00000 0.52174
vt 0.04348 0.52174
vt 0.08696 0.52174
vt 0.13043 0.52174
vt 0.17391 0.52174
vt 0.21739 0.52174
vt 0.26087 0.52174
vt 0.30435 0.52174
vt 0.34783 0.52174
vt 0.39130 0.52174
vt 0.43478 0.52174
vt 0.47826 0.52174
vt 0.52174 0.52174
vt 0.56522 0.52174
vt 0.60870 0.52174
vt 0.65217 0.52174
vt 0.69565 0.52174
vt 0.73913 0.52174
vt 0.78261 0.52174
vt 0.82609 0.52174
vt 0.86957 0.52174
vt 0.91304 0.52174
vt 0.95652 0.52174
vt 1.00000 0.52174
vt 0.00000 0.56522
vt 0.04348 0.56522
vt 0.08696 0.56522
vt 0.13043 0.56522
vt 0.17391 0.56522
vt 0.21739 0.56522
vt 0.26087 0.56522
vt 0.30435 0.56522
vt 0.34783 0.56522
vt 0.39130 0.56522
vt 0.43478 0.56522
vt 0.47826 0.56522
vt 0.52174 0.56522
vt 0.56522 0.56522
vt 0.60870 0.56522
vt 0.65217 0.56522
vt 0.69565 0.56522
vt 0.73913 0.56522
vt 0.78261 0.56522
vt 0.82609 0.56522
vt 0.86957 0.56522
vt 0.91304 0.56522
vt 0.95652 0.56522
vt 1.00000 0.56522
vt 0.00000 0.60870
vt 0.04348 0.60870
vt 0.08696 0.60870
vt 0.13043 0.60870
vt 0.17391 0.60870
vt 0.21739 0.60870
vt 0.26087 0.60870
vt 0.30435 0.60870
vt 0.34783 0.60870
vt 0.39130 0.60870
vt 0.43478 0.60870
vt 0.47826 0.60870
vt 0.52174 0.60870
vt 0.56522 0.60870
vt 0.60870 0.60870
vt 0.65217 0.60870
vt 0.69565 0.60870
vt 0.73913 0.60870
vt 0.78261 0.60870
vt 0.82609 0.60870
vt 0.86957 0.60870
vt 0.91304 0.60870
vt 0.95652 0.60870
vt 1.00000 0.60870
vt 0.00000 0.65217
vt 0.04348 0.65217
vt 0.08696 0.65217
vt 0.13043 0.65217
vt 0.17391 0.65217
vt 0.21739 0.65217
vt 0.26087 0.65217
vt 0.30435 0.65217
vt 0.34783 0.65217
vt 0.39130 0.65217
vt 0.43478 0.65217
vt 0.47826 0.65217
vt 0.52174 0.65217
vt 0.56522 0.65217
vt 0.60870 0.65217
vt 0.65217 0.65217
vt 0.69565 0.65217
vt 0.73913 0.65217
vt 0.78261 0.65217
vt 0.82609 0.65217
vt 0.86957 0.65217
vt 0.91304 0.65217
vt 0.95652 0.65217
vt 1.00000 0.65217
vt 0.00000 0.69565
vt 0.04348 0.69565
vt 0.08696 0.69565
vt 0.13043 0.69565
vt 0.17391 0.69565
vt 0.21739 0.69565
vt 0.26087 0.69565
vt 0.30435 0.69565
vt 0.34783 0.69565
vt 0.39130 0.69565
vt 0.43478 0.69565
vt 0.47826 0.69565
vt 0.52174 0.69565
vt 0.56522 0.69565
vt 0.60870 0.69565
vt 0.65217 0.69565
vt 0.69565 0.69565
vt 0.73913 0.69565
vt 0.78261 0.69565
vt 0.82609 0.69565
vt 0.86957 0.69565
vt 0.91304 0.69565
vt 0.95652 0.69565
vt 1.00000 0.69565
vt 0.00000 0.73913
vt 0.04348 0.73913
vt 0.08696 0.73913
vt 0.13043 0.73913
vt 0.17391 0.73913
vt 0.21739 0.73913
vt 0.26087 0.73913
vt 0.30435 0.73913
vt 0.34783 0.73913
vt 0.39130 0.73913
vt 0.43478 0.73913
vt 0.47826 0.73913
vt 0.52174 0.73913
vt 0.56522 0.73913
vt 0.60870 0.73913
vt 0.65217 0.73913
vt 0.69565 0.73913
vt 0.73913 0.73913
vt 0.78261 0.73913
vt 0.82609 0.73913
vt 0.86957 0.73913
vt 0.91304 0.73913
vt 0.95652 0.73913
vt 1.00000 0.73913
vt 0.00000 0.78261
vt 0.04348 0.78261
vt 0.08696 0.78261
vt 0.13043 0.78261
vt 0.17391 0.78261
vt 0.21739 0.78261
vt 0.26087 0.78261
vt 0.30435 0.78261
vt 0.34783 0.78261
vt 0.39130 0.78261
vt 0.43478 0.78261
vt 0.47826 0.78261
vt 0.52174 0.78261
vt 0.56522 0.78261
vt 0.60870 0.78261
vt 0.65217 0.78261
vt 0.69565 0.78261
vt 0.73913 0.78261
vt 0.78261 0.78261
vt 0.82609 0.78261
vt 0.86957 0.78261
vt 0.91304 0.78261
vt 0.95652 0.78261
vt 1.00000 0.78261
vt 0.00000 0.82609
vt 0.04348 0.82609
vt 0.08696 0.82609
vt 0.13043 0.82609
vt 0.17391 0.82609
vt 0.21739 0.82609
vt 0.26087 0.82609
vt 0.30435 0.82609
vt 0.34783 0.82609
vt 0.39130 0.82609
vt 0.43478 0.82609
vt 0.47826 0.82609
vt 0.52174 0.82609
vt 0.56522 0.82609
vt 0.60870 0.82609
vt 0.65217 0.82609
vt 0.69565 0.82609
vt 0.73913 0.82609
vt 0.78261 0.82609
vt 0.82609 0.82609
vt 0.86957 0.82609
vt 0.91304 0.82609
vt 0.95652 0.82609
vt 1.00000 0.82609
vt 0.00000 0.86957
vt 0.04348 0.86957
vt 0.08696 0.86957
vt 0.13043 0.86957
vt 0.17391 0.86957
vt 0.21739 0.86957
vt 0.26087 0.86957
vt 0.30435 0.86957
vt 0.34783 0.86957
vt 0.39130 0.86957
vt 0.43478 0.86957
vt 0.47826 0.86957
vt 0.52174 0.86957
vt 0.56522 0.86957
vt 0.60870 0.86957
vt 0.65217 0.86957
vt 0.69565 0.86957
vt 0.73913 0.86957
vt 0.78261 0.86957
vt 0.82609 0.86957
vt 0.86957 0.86957
vt 0.91304 0.86957
vt 0.95652 0.86957
vt 1.00000 0.86957
vt 0.00000 0.91304
vt 0.04348 0.91304
vt 0.08696 0.91304
vt 0.13043 0.91304
vt 0.17391 0.91304
vt 0.21739 0.91304
vt 0.26087 0.91304
vt 0.30435 0.91304
vt 0.34783 0.91304
vt 0.39130 0.91304
vt 0.43478 0.91304
vt 0.47826 0.91304
vt 0.52174 0.91304
vt 0.56522 0.91304
vt 0.60870 0.91304
vt 0.65217 0.91304
vt 0.69565 0.91304
vt 0.73913 0.91304
vt 0.78261 0.91304
vt 0.82609 0.91304
vt 0.86957 0.91304
vt 0.91304 0.91304
vt 0.95652 0.91304
vt 1.00000 0.91304
vt 0.00000 0.95652
vt 0.04348 0.95652
vt 0.08696 0.95652
vt 0.13043 0.95652
vt 0.17391 0.95652
vt 0.21739 0.95652
vt 0.26087 0.95652
vt 0.30435 0.95652
vt 0.34783 0.95652
vt 0.39130 0.95652
vt 0.43478 0.95652
vt 0.47826 0.95652
vt 0.52174 0.95652
vt 0.56522 0.95652
vt 0.60870 0.95652
vt 0.65217 0.95652
vt 0.69565 0.95652
vt 0.73913 0.95652
vt 0.78261 0.95652
vt 0.82609 0.95652
vt 0.86957 0.95652
vt 0.91304 0.95652
vt 0.95652 0.95652
vt 1.00000 0.95652
vt 0.00000 1.00000
vt 0.04348 1.00000
vt 0.08696 1.00000
vt 0.13043 1.00000
vt 0.17391 1.00000
vt 0.21739 1.00000
vt 0.26087 1.00000
vt 0.30435 1.00000
vt 0.34783 1.00000
vt 0.39130 1.00000
vt 0.43478 1.00000
vt 0.47826 1.00000
vt 0.52174 1.00000
vt 0.56522 1.00000
vt 0.60870 1.00000
vt 0.65217 1.00000
vt 0.69565 1.00000
vt 0.73913 1.00000
vt 0.78261 1.00000
vt 0.82609 1.00000
vt 0.86957 1.00000
vt 0.91304 1.00000
vt 0.95652 1.00000
vt 1.00000 1.00000
vn 0.00000 -1.00000 0.00000
vn 0.00000 -1.00000 0.00000
vn 0.00000 -1.00000 0.00000
vn 0.00000 -1.00000 0.00000
vn 0.00000 -1.00000 0.00000
vn 0.00000 -1.00000 0.00000
vn 0.00000 -1.00000 0.00000
vn 0.00000 -1.00000 0.00000
vn 0.00000 -1.00000 0.00000
vn 0.00000 -1.00000 0.00000
vn 0.00000 -1.00000 0.00000
vn 0.00000 -1.00000 0.00000
vn 0.00000 -1.00000 0.00000
vn 0.00000 -1.00000 0.00000
vn 0.00000 -1.00000 0.00000
vn 0.00000 -1.00000 0.00000
vn 0.00000 -1.00000 0.00000
vn 0.00000 -1.00000 0.00000
vn 0.00000 -1.00000 0.00000
vn 0.00000 -1.00000 0.00000
vn 0.00000 -1.00000 0.00000
vn 0.00000 -1.00000 0.00000
vn 0.00000 -1.00000 0.00000
vn 0.00000 -1.00000 0.00000
vn 0.13617 -0.99069 0.00000
vn 0.13112 -0.99069 0.03674
vn 0.11634 -0.99069 0.07075
vn 0.09294 -0.99069 0.09952
vn 0.06265 -0.99069 0.12090
vn 0.02770 -0.99069 0.13332
vn -0.00929 -0.99069 0.13585
vn -0.04560 -0.99069 0.12830
vn -0.07852 -0.99069 0.11124
vn -0.10563 -0.99069 0.08593
vn -0.12489 -0.99069 0.05425
vn -0.13490 -0.99069 0.01854
vn -0.13490 -0.99069 -0.01854
vn -0.12489 -0.99069 -0.05425
vn -0.10563 -0.99069 -0.08593
vn -0.07852 -0.99069 -0.11124
vn -0.04560 -0.99069 -0.12830
vn -0.00929 -0.99069 -0.13585
vn 0.02770 -0.99069 -0.13332
vn 0.06265 -0.99069 -0.12090
vn 0.09294 -0.99069 -0.09952
vn 0.11634 -0.99069 -0.07075
vn 0.13112 -0.99069 -0.03674
vn 0.13617 -0.99069 -0.00000
vn 0.26980 -0.96292 0.00000
vn 0.25979 -0.96292 0.07279
vn 0.23052 -0.96292 0.14018
vn 0.18415 -0.96292 0.19718
vn 0.12412 -0.96292 0.23955
vn 0.05489 -0.96292 0.26415
vn -0.01841 -0.96292 0.26917
vn -0.09035 -0.96292 0.25422
vn -0.15559 -0.96292 0.22042
vn -0.20928 -0.96292 0.17027
vn -0.24746 -0.96292 0.10749
vn -0.26728 -0.96292 0.03674
vn -0.26728 -0.96292 -0.03674
vn -0.24746 -0.96292 -0.10749
vn -0.20928 -0.96292 -0.17027
vn -0.15559 -0.96292 -0.22042
vn -0.09035 -0.96292 -0.25422
vn -0.01841 -0.96292 -0.26917
vn 0.05489 -0.96292 -0.26415
vn 0.12412 -0.96292 -0.23955
vn 0.18415 -0.96292 -0.19718
vn 0.23052 -0.96292 -0.14018
vn 0.25979 -0.96292 -0.07279
vn 0.26980 -0.96292 -0.00000
vn 0.39840 -0.91721 0.00000
vn 0.38363 -0.91721 0.10749
vn 0.34040 -0.91721 0.20700
vn 0.27193 -0.91721 0.29117
vn 0.18329 -0.91721 0.35373
vn 0.08106 -0.91721 0.39007
vn -0.02719 -0.91721 0.39747
vn -0.13342 -0.91721 0.37540
vn -0.22975 -0.91721 0.32548
vn -0.30904 -0.91721 0.25143
vn -0.36542 -0.91721 0.15872
vn -0.39469 -0.91721 0.05425
vn -0.39469 -0.91721 -0.05425
vn -0.36542 -0.91721 -0.15872
vn -0.30904 -0.91721 -0.25143
vn -0.22975 -0.91721 -0.32548
vn -0.13342 -0.91721 -0.37540
vn -0.02719 -0.91721 -0.39747
vn 0.08106 -0.91721 -0.39007
vn 0.18329 -0.91721 -0.35373
vn 0.27193 -0.91721 -0.29117
vn 0.34040 -0.91721 -0.20700
vn 0.38363 -0.91721 -0.10749
vn 0.39840 -0.91721 -0.00000
vn 0.51958 -0.85442 0.00000
vn 0.50032 -0.85442 0.14018
vn 0.44394 -0.85442 0.26997
vn 0.35464 -0.85442 0.37973
vn 0.23904 -0.85442 0.46133
vn 0.10571 -0.85442 0.50872
vn -0.03546 -0.85442 0.51837
vn -0.17400 -0.85442 0.48958
vn -0.29963 -0.85442 0.42448
vn -0.40305 -0.85442 0.32790
vn -0.47657 -0.85442 0.20700
vn -0.51474 -0.85442 0.07075
vn -0.51474 -0.85442 -0.07075
vn -0.47657 -0.85442 -0.20700
vn -0.40305 -0.85442 -0.32790
vn -0.29963 -0.85442 -0.42448
vn -0.17400 -0.85442 -0.48958
vn -0.03546 -0.85442 -0.51837
vn 0.10571 -0.85442 -0.50872
vn 0.23904 -0.85442 -0.46133
vn 0.35464 -0.85442 -0.37973
vn 0.44394 -0.85442 -0.26997
vn 0.50032 -0.85442 -0.14018
vn 0.51958 -0.85442 -0.00000
vn 0.63109 -0.77571 0.00000
vn 0.60769 -0.77571 0.17027
vn 0.53921 -0.77571 0.32790
vn 0.43075 -0.77571 0.46122
vn 0.29034 -0.77571 0.56033
vn 0.12840 -0.77571 0.61789
vn -0.04307 -0.77571 0.62962
vn -0.21134 -0.77571 0.59465
vn -0.36394 -0.77571 0.51558
vn -0.48954 -0.77571 0.39827
vn -0.57884 -0.77571 0.25143
vn -0.62521 -0.77571 0.08593
vn -0.62521 -0.77571 -0.08593
vn -0.57884 -0.77571 -0.25143
vn -0.48954 -0.77571 -0.39827
vn -0.36394 -0.77571 -0.51558
vn -0.21134 -0.77571 -0.59465
vn -0.04307 -0.77571 -0.62962
vn 0.12840 -0.77571 -0.61789
vn 0.29034 -0.77571 -0.56033
vn 0.43075 -0.77571 -0.46122
vn 0.53921 -0.77571 -0.32790
vn 0.60769 -0.77571 -0.17027
vn 0.63109 -0.77571 -0.00000
vn 0.73084 -0.68255 0.00000
vn 0.70373 -0.68255 0.19718
vn 0.62444 -0.68255 0.37973
vn 0.49883 -0.68255 0.53412
vn 0.33623 -0.68255 0.64890
vn 0.14869 -0.68255 0.71555
vn -0.04987 -0.68255 0.72913
vn -0.24474 -0.68255 0.68864
vn -0.42146 -0.68255 0.59707
vn -0.56692 -0.68255 0.46122
vn -0.67033 -0.68255 0.29117
vn -0.72403 -0.68255 0.09952
vn -0.72403 -0.68255 -0.09952
vn -0.67033 -0.68255 -0.29117
vn -0.56692 -0.68255 -0.46122
vn -0.42146 -0.68255 -0.59707
vn -0.24474 -0.68255 -0.68864
vn -0.04987 -0.68255 -0.72913
vn 0.14869 -0.68255 -0.71555
vn 0.33623 -0.68255 -0.64890
vn 0.49883 -0.68255 -0.53412
vn 0.62444 -0.68255 -0.37973
vn 0.70373 -0.68255 -0.19718
vn 0.73084 -0.68255 -0.00000
vn 0.81697 -0.57668 0.00000
vn 0.78667 -0.57668 0.22042
vn 0.69803 -0.57668 0.42448
vn 0.55763 -0.57668 0.59707
vn 0.37586 -0.57668 0.72538
vn 0.16622 -0.57668 0.79988
vn -0.05575 -0.57668 0.81507
vn -0.27359 -0.57668 0.76980
vn -0.47113 -0.57668 0.66744
vn -0.63373 -0.57668 0.51558
vn -0.74933 -0.57668 0.32548
vn -0.80936 -0.57668 0.11124
vn -0.80936 -0.57668 -0.11124
vn -0.74933 -0.57668 -0.32548
vn -0.63373 -0.57668 -0.51558
vn -0.47113 -0.57668 -0.66744
vn -0.27359 -0.57668 -0.76980
vn -0.05575 -0.57668 -0.81507
vn 0.16622 -0.57668 -0.79988
vn 0.37586 -0.57668 -0.72538
vn 0.55763 -0.57668 -0.59707
vn 0.69803 -0.57668 -0.42448
vn 0.78667 -0.57668 -0.22042
vn 0.81697 -0.57668 -0.00000
vn 0.88789 -0.46007 0.00000
vn 0.85496 -0.46007 0.23955
vn 0.75863 -0.46007 0.46133
vn 0.60603 -0.46007 0.64890
vn 0.40848 -0.46007 0.78834
vn 0.18065 -0.46007 0.86931
vn -0.06059 -0.46007 0.88582
vn -0.29733 -0.46007 0.83662
vn -0.51203 -0.46007 0.72538
vn -0.68874 -0.46007 0.56033
vn -0.81438 -0.46007 0.35373
vn -0.87962 -0.46007 0.12090
vn -0.87962 -0.46007 -0.12090
vn -0.81438 -0.46007 -0.35373
vn -0.68874 -0.46007 -0.56033
vn -0.51203 -0.46007 -0.72538
vn -0.29733 -0.46007 -0.83662
vn -0.06059 -0.46007 -0.88582
vn 0.18065 -0.46007 -0.86931
vn 0.40848 -0.46007 -0.78834
vn 0.60603 -0.46007 -0.64890
vn 0.75863 -0.46007 -0.46133
vn 0.85496 -0.46007 -0.23955
vn 0.88789 -0.46007 -0.00000
vn 0.94226 -0.33488 0.00000
vn 0.90732 -0.33488 0.25422
vn 0.80509 -0.33488 0.48958
vn 0.64314 -0.33488 0.68864
vn 0.43350 -0.33488 0.83662
vn 0.19171 -0.33488 0.92255
vn -0.06430 -0.33488 0.94006
vn -0.31554 -0.33488 0.88786
vn -0.54338 -0.33488 0.76980
vn -0.73092 -0.33488 0.59465
vn -0.86425 -0.33488 0.37540
vn -0.93348 -0.33488 0.12830
vn -0.93348 -0.33488 -0.12830
vn -0.86425 -0.33488 -0.37540
vn -0.73092 -0.33488 -0.59465
vn -0.54338 -0.33488 -0.76980
vn -0.31554 -0.33488 -0.88786
vn -0.06430 -0.33488 -0.94006
vn 0.19171 -0.33488 -0.92255
vn 0.43350 -0.33488 -0.83662
vn 0.64314 -0.33488 -0.68864
vn 0.80509 -0.33488 -0.48958
vn 0.90732 -0.33488 -0.25422
vn 0.94226 -0.33488 -0.00000
vn 0.97908 -0.20346 0.00000
vn 0.94278 -0.20346 0.26415
vn 0.83655 -0.20346 0.50872
vn 0.66828 -0.20346 0.71555
vn 0.45044 -0.20346 0.86931
vn 0.19920 -0.20346 0.95861
vn -0.06682 -0.20346 0.97680
vn -0.32788 -0.20346 0.92255
vn -0.56462 -0.20346 0.79988
vn -0.75949 -0.20346 0.61789
vn -0.89803 -0.20346 0.39007
vn -0.96996 -0.20346 0.13332
vn -0.96996 -0.20346 -0.13332
vn -0.89803 -0.20346 -0.39007
vn -0.75949 -0.20346 -0.61789
vn -0.56462 -0.20346 -0.79988
vn -0.32788 -0.20346 -0.92255
vn -0.06682 -0.20346 -0.97680
vn 0.19920 -0.20346 -0.95861
vn 0.45044 -0.20346 -0.86931
vn 0.66828 -0.20346 -0.71555
vn 0.83655 -0.20346 -0.50872
vn 0.94278 -0.20346 -0.26415
vn 0.97908 -0.20346 -0.00000
vn 0.99767 -0.06824 0.00000
vn 0.96067 -0.06824 0.26917
vn 0.85243 -0.06824 0.51837
vn 0.68096 -0.06824 0.72913
vn 0.45899 -0.06824 0.88582
vn 0.20298 -0.06824 0.97680
vn -0.06808 -0.06824 0.99534
vn -0.33410 -0.06824 0.94006
vn -0.57534 -0.06824 0.81507
vn -0.77390 -0.06824 0.62962
vn -0.91507 -0.06824 0.39747
vn -0.98838 -0.06824 0.13585
vn -0.98838 -0.06824 -0.13585
vn -0.91507 -0.06824 -0.39747
vn -0.77390 -0.06824 -0.62962
vn -0.57534 -0.06824 -0.81507
vn -0.33410 -0.06824 -0.94006
vn -0.06808 -0.06824 -0.99534
vn 0.20298 -0.06824 -0.97680
vn 0.45899 -0.06824 -0.88582
vn 0.68096 -0.06824 -0.72913
vn 0.85243 -0.06824 -0.51837
vn 0.96067 -0.06824 -0.26917
vn 0.99767 -0.06824 -0.00000
vn 0.99767 0.06824 0.00000
vn 0.96067 0.06824 0.26917
vn 0.85243 0.06824 0.51837
vn 0.68096 0.06824 0.72913
vn 0.45899 0.06824 0.88582
vn 0.20298 0.06824 0.97680
vn -0.06808 0.06824 0.99534
vn -0.33410 0.06824 0.94006
vn -0.57534 0.06824 0.81507
vn -0.77390 0.06824 0.62962
vn -0.91507 0.06824 0.39747
vn -0.98838 0.06824 0.13585
vn -0.98838 0.06824 -0.13585
vn -0.91507 0.06824 -0.39747
vn -0.77390 0.06824 -0.62962
vn -0.57534 0.06824 -0.81507
vn -0.33410 0.06824 -0.94006
vn -0.06808 0.06824 -0.99534
vn 0.20298 0.06824 -0.97680
vn 0.45899 0.06824 -0.88582
vn 0.68096 0.06824 -0.72913
vn 0.85243 0.06824 -0.51837
vn 0.96067 0.06824 -0.26917
vn 0.99767 0.06824 -0.00000
vn 0.97908 0.20346 0.00000
vn 0.94278 0.20346 0.26415
vn 0.83655 0.20346 0.50872
vn 0.66828 0.20346 0.71555
vn 0.45044 0.20346 0.86931
vn 0.19920 0.20346 0.95861
vn -0.06682 0.20346 0.97680
vn -0.32788 0.20346 0.92255
vn -0.56462 0.20346 0.79988
vn -0.75949 0.20346 0.61789
vn -0.89803 0.20346 0.39007
vn -0.96996 0.20346 0.13332
vn -0.96996 0.20346 -0.13332
vn -0.89803 0.20346 -0.39007
vn -0.75949 0.20346 -0.61789
vn -0.56462 0.20346 -0.79988
vn -0.32788 0.20346 -0.92255
vn -0.06682 0.20346 -0.97680
vn 0.19920 0.20346 -0.95861
vn 0.45044 0.20346 -0.86931
vn 0.66828 0.20346 -0.71555
vn 0.83655 0.20346 -0.50872
vn 0.94278 0.20346 -0.26415
vn 0.97908 0.20346 -0.00000
vn 0.94226 0.33488 0.00000
vn 0.90732 0.33488 0.25422
vn 0.80509 0.33488 0.48958
vn 0.64314 0.33488 0.68864
vn 0.43350 0.33488 0.83662
vn 0.19171 0.33488 0.92255
vn -0.06430 0.33488 0.94006
vn -0.31554 0.33488 0.88786
vn -0.54338 0.33488 0.76980
vn -0.73092 0.33488 0.59465
vn -0.86425 0.33488 0.37540
vn -0.93348 0.33488 0.12830
vn -0.93348 0.33488 -0.12830
vn -0.86425 0.33488 -0.37540
vn -0.73092 0.33488 -0.59465
vn -0.54338 0.33488 -0.76980
vn -0.31554 0.33488 -0.88786
vn -0.06430 0.33488 -0.94006
vn 0.19171 0.33488 -0.92255
vn 0.43350 0.33488 -0.83662
vn 0.64314 0.33488 -0.68864
vn 0.80509 0.33488 -0.48958
vn 0.90732 0.33488 -0.25422
vn 0.94226 0.33488 -0.00000
vn 0.88789 0.46007 0.00000
vn 0.85496 0.46007 0.23955
vn 0.75863 0.46007 0.46133
vn 0.60603 0.46007 0.64890
vn 0.40848 0.46007 0.78834
vn 0.18065 0.46007 0.86931
vn -0.06059 0.46007 0.88582
vn -0.29733 0.46007 0.83662
vn -0.51203 0.46007 0.72538
vn -0.68874 0.46007 0.56033
vn -0.81438 0.46007 0.35373
vn -0.87962 0.46007 0.12090
vn -0.87962 0.46007 -0.12090
vn -0.81438 0.46007 -0.35373
vn -0.68874 0.46007 -0.56033
vn -0.51203 0.46007 -0.72538
vn -0.29733 0.46007 -0.83662
vn -0.06059 0.46007 -0.88582
vn 0.18065 0.46007 -0.86931
vn 0.40848 0.46007 -0.78834
vn 0.60603 0.46007 -0.64890
vn 0.75863 0.46007 -0.46133
vn 0.85496 0.46007 -0.23955
vn 0.88789 0.46007 -0.00000
vn 0.81697 0.57668 0.00000
vn 0.78667 0.57668 0.22042
vn 0.69803 0.57668 0.42448
vn 0.55763 0.57668 0.59707
vn 0.37586 0.57668 0.72538
vn 0.16622 0.57668 0.79988
vn -0.05575 0.57668 0.81507
vn -0.27359 0.57668 0.76980
vn -0.47113 0.57668 0.66744
vn -0.63373 0.57668 0.51558
vn -0.74933 0.57668 0.32548
vn -0.80936 0.57668 0.11124
vn -0.80936 0.57668 -0.11124
vn -0.74933 0.57668 -0.32548
vn -0.63373 0.57668 -0.51558
vn -0.47113 0.57668 -0.66744
vn -0.27359 0.57668 -0.76980
vn -0.05575 0.57668 -0.81507
vn 0.16622 0.57668 -0.79988
vn 0.37586 0.57668 -0.72538
vn 0.55763 0.57668 -0.59707
vn 0.69803 0.57668 -0.42448
vn 0.78667 0.57668 -0.22042
vn 0.81697 0.57668 -0.00000
vn 0.73084 0.68255 0.00000
vn 0.70373 0.68255 0.19718
vn 0.62444 0.68255 0.37973
vn 0.49883 0.68255 0.53412
vn 0.33623 0.68255 0.64890
vn 0.14869 0.68255 0.71555
vn -0.04987 0.68255 0.72913
vn -0.24474 0.68255 0.68864
vn -0.42146 0.68255 0.59707
vn -0.56692 0.68255 0.46122
vn -0.67033 0.68255 0.29117
vn -0.72403 0.68255 0.09952
vn -0.72403 0.68255 -0.09952
vn -0.67033 0.68255 -0.29117
vn -0.56692 0.68255 -0.46122
vn -0.42146 0.68255 -0.59707
vn -0.24474 0.68255 -0.68864
vn -0.04987 0.68255 -0.72913
vn 0.14869 0.68255 -0.71555
vn 0.33623 0.68255 -0.64890
vn 0.49883 0.68255 -0.53412
vn 0.62444 0.68255 -0.37973
vn 0.70373 0.68255 -0.19718
vn 0.73084 0.68255 -0.00000
vn 0.63109 0.77571 0.00000
vn 0.60769 0.77571 0.17027
vn 0.53921 0.77571 0.32790
vn 0.43075 0.77571 0.46122
vn 0.29034 0.77571 0.56033
vn 0.12840 0.77571 0.61789
vn -0.04307 0.77571 0.62962
vn -0.21134 0.77571 0.59465
vn -0.36394 0.77571 0.51558
vn -0.48954 0.77571 0.39827
vn -0.57884 0.77571 0.25143
vn -0.62521 0.77571 0.08593
vn -0.62521 0.77571 -0.08593
vn -0.57884 0.77571 -0.25143
vn -0.48954 0.77571 -0.39827
vn -0.36394 0.77571 -0.51558
vn -0.21134 0.77571 -0.59465
vn -0.04307 0.77571 -0.62962
vn 0.12840 0.77571 -0.61789
vn 0.29034 0.77571 -0.56033
vn 0.43075 0.77571 -0.46122
vn 0.53921 0.77571 -0.32790
vn 0.60769 0.77571 -0.17027
vn 0.63109 0.77571 -0.00000
vn 0.51958 0.85442 0.00000
vn 0.50032 0.85442 0.14018
vn 0.44394 0.85442 0.26997
vn 0.35464 0.85442 0.37973
vn 0.23904 0.85442 0.46133
vn 0.10571 0.85442 0.50872
vn -0.03546 0.85442 0.51837
vn -0.17400 0.85442 0.48958
vn -0.29963 0.85442 0.42448
vn -0.40305 0.85442 0.32790
vn -0.47657 0.85442 0.20700
vn -0.51474 0.85442 0.07075
vn -0.51474 0.85442 -0.07075
vn -0.47657 0.85442 -0.20700
vn -0.40305 0.85442 -0.32790
vn -0.29963 0.85442 -0.42448
vn -0.17400 0.85442 -0.48958
vn -0.03546 0.85442 -0.51837
vn 0.10571 0.85442 -0.50872
vn 0.23904 0.85442 -0.46133
vn 0.35464 0.85442 -0.37973
vn 0.44394 0.85442 -0.26997
vn 0.50032 0.85442 -0.14018
vn 0.51958 0.85442 -0.00000
vn 0.39840 0.91721 0.00000
vn 0.38363 0.91721 0.10749
vn 0.34040 0.91721 0.20700
vn 0.27193 0.91721 0.29117
vn 0.18329 0.91721 0.35373
vn 0.08106 0.91721 0.39007
vn -0.02719 0.91721 0.39747
vn -0.13342 0.91721 0.37540
vn -0.22975 0.91721 0.32548
vn -0.30904 0.91721 0.25143
vn -0.36542 0.91721 0.15872
vn -0.39469 0.91721 0.05425
vn -0.39469 0.91721 -0.05425
vn -0.36542 0.91721 -0.15872
vn -0.30904 0.91721 -0.25143
vn -0.22975 0.91721 -0.32548
vn -0.13342 0.91721 -0.37540
vn -0.02719 0.91721 -0.39747
vn 0.08106 0.91721 -0.39007
vn 0.18329 0.91721 -0.35373
vn 0.27193 0.91721 -0.29117
vn 0.34040 0.91721 -0.20700
vn 0.38363 0.91721 -0.10749
vn 0.39840 0.91721 -0.00000
vn 0.26980 0.96292 0.00000
vn 0.25979 0.96292 0.07279
vn 0.23052 0.96292 0.14018
vn 0.18415 0.96292 0.19718
vn 0.12412 0.96292 0.23955
vn 0.05489 0.96292 0.26415
vn -0.01841 0.96292 0.26917
vn -0.09035 0.96292 0.25422
vn -0.15559 0.96292 0.22042
vn -0.20928 0.96292 0.17027
vn -0.24746 0.96292 0.10749
vn -0.26728 0.96292 0.03674
vn -0.26728 0.96292 -0.03674
vn -0.24746 0.96292 -0.10749
vn -0.20928 0.96292 -0.17027
vn -0.15559 0.96292 -0.22042
vn -0.09035 0.96292 -0.25422
vn -0.01841 0.96292 -0.26917
vn 0.05489 0.96292 -0.26415
vn 0.12412 0.96292 -0.23955
vn 0.18415 0.96292 -0.19718
vn 0.23052 0.96292 -0.14018
vn 0.25979 0.96292 -0.07279
vn 0.26980 0.96292 -0.00000
vn 0.13617 0.99069 0.00000
vn 0.13112 0.99069 0.03674
vn 0.11634 0.99069 0.07075
vn 0.09294 0.99069 0.09952
vn 0.06265 0.99069 0.12090
vn 0.02770 0.99069 0.13332
vn -0.00929 0.99069 0.13585
vn -0.04560 0.99069 0.12830
vn -0.07852 0.99069 0.11124
vn -0.10563 0.99069 0.08593
vn -0.12489 0.99069 0.05425
vn -0.13490 0.99069 0.01854
vn -0.13490 0.99069 -0.01854
vn -0.12489 0.99069 -0.05425
vn -0.10563 0.99069 -0.08593
vn -0.07852 0.99069 -0.11124
vn -0.04560 0.99069 -0.12830
vn -0.00929 0.99069 -0.13585
vn 0.02770 0.99069 -0.13332
vn 0.06265 0.99069 -0.12090
vn 0.09294 0.99069 -0.09952
vn 0.11634 0.99069 -0.07075
vn 0.13112 0.99069 -0.03674
vn 0.13617 0.99069 -0.00000
vn 0.00000 1.00000 0.00000
vn 0.00000 1.00000 0.00000
vn 0.00000 1.00000 0.00000
vn 0.00000 1.00000 0.00000
vn 0.00000 1.00000 0.00000
vn 0.00000 1.00000 0.00000
vn -0.00000 1.00000 0.00000
vn -0.00000 1.00000 0.00000
vn -0.00000 1.00000 0.00000
vn -0.00000 1.00000 0.00000
vn -0.00000 1.00000 0.00000
vn -0.00000 1.00000 0.00000
vn -0.00000 1.00000 -0.00000
vn -0.00000 1.00000 -0.00000
vn -0.00000 1.00000 -0.00000
vn -0.00000 1.00000 -0.00000
vn -0.00000 1.00000 -0.00000
vn -0.00000 1.00000 -0.00000
vn 0.00000 1.00000 -0.00000
vn 0.00000 1.00000 -0.00000
vn 0.00000 1.00000 -0.00000
vn 0.00000 1.00000 -0.00000
vn 0.00000 1.00000 -0.00000
vn 0.00000 1.00000 -0.00000
f 1/1/1 2/2/2 26/26/26
f 1/1/1 26/26/26 25/25/25
f 2/2/2 3/3/3 27/27/27
f 2/2/2 27/27/27 26/26/26
f 3/3/3 4/4/4 28/28/28
f 3/3/3 28/28/28 27/27/27
f 4/4/4 5/5/5 29/29/29
f 4/4/4 29/29/29 28/28/28
f 5/5/5 6/6/6 30/30/30
f 5/5/5 30/30/30 29/29/29
f 6/6/6 7/7/7 31/31/31
f 6/6/6 31/31/31 30/30/30
f 7/7/7 8/8/8 32/32/32
f 7/7/7 32/32/32 31/31/31
f 8/8/8 9/9/9 33/33/33
f 8/8/8 33/33/33 32/32/32
f 9/9/9 10/10/10 34/34/34
f 9/9/9 34/34/34 33/33/33
f 10/10/10 11/11/11 35/35/35
f 10/10/10 35/35/35 34/34/34
f 11/11/11 12/12/12 36/36/36
f 11/11/11 36/36/36 35/35/35
f 12/12/12 13/13/13 37/37/37
f 12/12/12 37/37/37 36/36/36
f 13/13/13 14/14/14 38/38/38
f 13/13/13 38/38/38 37/37/37
f 14/14/14 15/15/15 39/39/39
f 14/14/14 39/39/39 38/38/38
f 15/15/15 16/16/16 40/40/40
f 15/15/15 40/40/40 39/39/39
f 16/16/16 17/17/17 41/41/41
f 16/16/16 41/41/41 40/40/40
f 17/17/17 18/18/18 42/42/42
f 17/17/17 42/42/42 41/41/41
f 18/18/18 19/19/19 43/43/43
f 18/18/18 43/43/43 42/42/42
f 19/19/19 20/20/20 44/44/44
f 19/19/19 44/44/44 43/43/43
f 20/20/20 21/21/21 45/45/45
f 20/20/20 45/45/45 44/44/44
f 21/21/21 22/22/22 46/46/46
f 21/21/21 46/46/46 45/45/45
f 22/22/22 23/23/23 47/47/47
f 22/22/22 47/47/47 46/46/46
f 23/23/23 24/24/24 48/48/48
f 23/23/23 48/48/48 47/47/47
f 25/25/25 26/26/26 50/50/50
f 25/25/25 50/50/50 49/49/49
f 26/26/26 27/27/27 51/51/51
f 26/26/26 51/51/51 50/50/50
f 27/27/27 28/28/28 52/52/52
f 27/27/27 52/52/52 51/51/51
f 28/28/28 29/29/29 53/53/53
f 28/28/28 53/53/53 52/52/52
f 29/29/29 30/30/30 54/54/54
f 29/29/29 54/54/54 53/53/53
f 30/30/30 31/31/31 55/55/55
f 30/30/30 55/55/55 54/54/54
f 31/31/31 32/32/32 56/56/56
f 31/31/31 56/56/56 55/55/55
f 32/32/32 33/33/33 57/57/57
f 32/32/32 57/57/57 56/56/56
f 33/33/33 34/34/34 58/58/58
f 33/33/33 58/58/58 57/57/57
f 34/34/34 35/35/35 59/59/59
f 34/34/34 59/59/59 58/58/58
f 35/35/35 36/36/36 60/60/60
f 35/35/35 60/60/60 59/59/59
f 36/36/36 37/37/37 61/61/61
f 36/36/36 61/61/61 60/60/60
f 37/37/37 38/38/38 62/62/62
f 37/37/37 62/62/62 61/61/61
f 38/38/38 39/39/39 63/63/63
f 38/38/38 63/63/63 62/62/62
f 39/39/39 40/40/40 64/64/64
f 39/39/39 64/64/64 63/63/63
f 40/40/40 41/41/41 65/65/65
f 40/40/40 65/65/65 64/64/64
f 41/41/41 42/42/42 66/66/66
f 41/41/41 66/66/66 65/65/65
f 42/42/42 43/43/43 67/67/67
f 42/42/42 67/67/67 66/66/66
f 43/43/43 44/44/44 68/68/68
f 43/43/43 68/68/68 67/67/67
f 44/44/44 45/45/45 69/69/69
f 44/44/44 69/69/69 68/68/68
f 45/45/45 46/46/46 70/70/70
f 45/45/45 70/70/70 69/69/69
f 46/46/46 47/47/47 71/71/71
f 46/46/46 71/71/71 70/70/70
f 47/47/47 48/48/48 72/72/72
f 47/47/47 72/72/72 71/71/71
f 49/49/49 50/50/50 74/74/74
f 49/49/49 74/74/74 73/73/73
f 50/50/50 51/51/51 75/75/75
f 50/50/50 75/75/75 74/74/74
f 51/51/51 52/52/52 76/76/76
f 51/51/51 76/76/76 75/75/75
f 52/52/52 53/53/53 77/77/77
f 52/52/52 77/77/77 76/76/76
f 53/53/53 54/54/54 78/78/78
f 53/53/53 78/78/78 77/77/77
f 54/54/54 55/55/55 79/79/79
f 54/54/54 79/79/79 78/78/78
f 55/55/55 56/56/56 80/80/80
f 55/55/55 80/80/80 79/79/79
f 56/56/56 57/57/57 81/81/81
f 56/56/56 81/81/81 80/80/80
f 57/57/57 58/58/58 82/82/82
f 57/57/57 82/82/82 81/81/81
f 58/58/58 59/59/59 83/83/83
f 58/58/58 83/83/83 82/82/82
f 59/59/59 60/60/60 84/84/84
f 59/59/59 84/84/84 83/83/83
f 60/60/60 61/61/61 85/85/85
f 60/60/60 85/85/85 84/84/84
f 61/61/61 62/62/62 86/86/86
f 61/61/61 86/86/86 85/85/85
f 62/62/62 63/63/63 87/87/87
f 62/62/62 87/87/87 86/86/86
f 63/63/63 64/64/64 88/88/88
f 63/63/63 88/88/88 87/87/87
f 64/64/64 65/65/65 89/89/89
f 64/64/64 89/89/89 88/88/88
f 65/65/65 66/66/66 90/90/90
f 65/65/65 90/90/90 89/89/89
f 66/66/66 67/67/67 91/91/91
f 66/66/66 91/91/91 90/90/90
f 67/67/67 68/68/68 92/92/92
f 67/67/67 92/92/92 91/91/91
f 68/68/68 69/69/69 93/93/93
f 68/68/68 93/93/93 92/92/92
f 69/69/69 70/70/70 94/94/94
f 69/69/69 94/94/94 93/93/93
f 70/70/70 71/71/71 95/95/95
f 70/70/70 95/95/95 94/94/94
f 71/71/71 72/72/72 96/96/96
f 71/71/71 96/96/96 95/95/95
f 73/73/73 74/74/74 98/98/98
f 73/73/73 98/98/98 97/97/97
f 74/74/74 75/75/75 99/99/99
f 74/74/74 99/99/99 98/98/98
f 75/75/75 76/76/76 100/100/100
f 75/75/75 100/100/100 99/99/99
f 76/76/76 77/77/77 101/101/101
f 76/76/76 101/101/101 100/100/100
f 77/77/77 78/78/78 102/102/102
f 77/77/77 102/102/102 101/101/101
f 78/78/78 79/79/79 103/103/103
f 78/78/78 103/103/103 102/102/102
f 79/79/79 80/80/80 104/104/104
f 79/79/79 104/104/104 103/103/103
f 80/80/80 81/81/81 105/105/105
f 80/80/80 105/105/105 104/104/104
f 81/81/81 82/82/82 106/106/106
f 81/81/81 106/106/106 105/105/105
f 82/82/82 83/83/83 107/107/107
f 82/82/82 107/107/107 106/106/106
f 83/83/83 84/84/84 108/108/108
f 83/83/83 108/108/108 107/107/107
f 84/84/84 85/85/85 109/109/109
f 84/84/84 109/109/109 108/108/108
f 85/85/85 86/86/86 110/110/110
f 85/85/85 110/110/110 109/109/109
f 86/86/86 87/87/87 111/111/111
f 86/86/86 111/111/111 110/110/110
f 87/87/87 88/88/88 112/112/112
f 87/87/87 112/112/112 111/111/111
f 88/88/88 89/89/89 113/113/113
f 88/88/88 113/113/113 112/112/112
f 89/89/89 90/90/90 114/114/114
f 89/89/89 114/114/114 113/113/113
f 90/90/90 91/91/91 115/115/115
f 90/90/90 115/115/115 114/114/114
f 91/91/91 92/92/92 116/116/116
f 91/91/91 116/116/116 115/115/115
f 92/92/92 93/93/93 117/117/117
f 92/92/92 117/117/117 116/116/116
f 93/93/93 94/94/94 118/118/118
f 93/93/93 118/118/118 117/117/117
f 94/94/94 95/95/95 119/119/119
f 94/94/94 119/119/119 118/118/118
f 95/95/95 96/96/96 120/120/120
f 95/95/95 120/120/120 119/119/119
f 97/97/97 98/98/98 122/122/122
f 97/97/97 122/122/122 121/121/121
f 98/98/98 99/99/99 123/123/123
f 98/98/98 123/123/123 122/122/122
f 99/99/99 100/100/100 124/124/124
f 99/99/99 124/124/124 123/123/123
f 100/100/100 101/101/101 125/125/125
f 100/100/100 125/125/125 124/124/124
f 101/101/101 102/102/102 126/126/126
f 101/101/101 126/126/126 125/125/125
f 102/102/102 103/103/103 127/127/127
f 102/102/102 127/127/127 126/126/126
f 103/103/103 104/104/104 128/128/128
f 103/103/103 128/128/128 127/127/127
f 104/104/104 105/105/105 129/129/129
f 104/104/104 129/129/129 128/128/128
f 105/105/105 106/106/106 130/130/130
f 105/105/105 130/130/130 129/129/129
f 106/106/106 107/107/107 131/131/131
f 106/106/106 131/131/131 130/130/130
f 107/107/107 108/108/108 132/132/132
f 107/107/107 132/132/132 131/131/131
f 108/108/108 109/109/109 133/133/133
f 108/108/108 133/133/133 132/132/132
f 109/109/109 110/110/110 134/134/134
f 109/109/109 134/134/134 133/133/133
f 110/110/110 111/111/111 135/135/135
f 110/110/110 135/135/135 134/134/134
f 111/111/111 112/112/112 136/136/136
f 111/111/111 136/136/136 135/135/135
f 112/112/112 113/113/113 137/137/137
f 112/112/112 137/137/137 136/136/136
f 113/113/113 114/114/114 138/138/138
f 113/113/113 138/138/138 137/137/137
f 114/114/114 115/115/115 139/139/139
f 114/114/114 139/139/139 138/138/138
f 115/115/115 116/116/116 140/140/140
f 115/115/115 140/140/140 139/139/139
f 116/116/116 117/117/117 141/141/141
f 116/116/116 141/141/141 140/140/140
f 117/117/117 118/118/118 142/142/142
f 117/117/117 142/142/142 141/141/141
f 118/118/118 119/119/119 143/143/143
f 118/118/118 143/143/143 142/142/142
f 119/119/119 120/120/120 144/144/144
f 119/119/119 144/144/144 143/143/143
f 121/121/121 122/122/122 146/146/146
f 121/121/121 146/146/146 145/145/145
f 122/122/122 123/123/123 147/147/147
f 122/122/122 147/147/147 146/146/146
f 123/123/123 124/124/124 148/148/148
f 123/123/123 148/148/148 147/147/147
f 124/124/124 125/125/125 149/149/149
f 124/124/124 149/149/149 148/148/148
f 125/125/125 126/126/126 150/150/150
f 125/125/125 150/150/150 149/149/149
f 126/126/126 127/127/127 151/151/151
f 126/126/126 151/151/151 150/150/150
f 127/127/127 128/128/128 152/152/152
f 127/127/127 152/152/152 151/151/151
f 128/128/128 129/129/129 153/153/153
f 128/128/128 153/153/153 152/152/152
f 129/129/129 130/130/130 154/154/154
f 129/129/129 154/154/154 153/153/153
f 130/130/130 131/131/131 155/155/155
f 130/130/130 155/155/155 154/154/154
f 131/131/131 132/132/132 156/156/156
f 131/131/131 156/156/156 155/155/155
f 132/132/132 133/133/133 157/157/157
f 132/132/132 157/157/157 156/156/156
f 133/133/133 134/134/134 158/158/158
f 133/133/133 158/158/158 157/157/157
f 134/134/134 135/135/135 159/159/159
f 134/134/134 159/159/159 158/158/158
f 135/135/135 136/136/136 160/160/160
f 135/135/135 160/160/160 159/159/159
f 136/136/136 137/137/137 161/161/161
f 136/136/136 161/161/161 160/160/160
f 137/137/137 138/138/138 162/162/162
f 137/137/137 162/162/162 161/161/161
f 138/138/138 139/139/139 163/163/163
f 138/138/138 163/163/163 162/162/162
f 139/139/139 140/140/140 164/164/164
f 139/139/139 164/164/164 163/163/163
f 140/140/140 141/141/141 165/165/165
f 140/140/140 165/165/165 164/164/164
f 141/141/141 142/142/142 166/166/166
f 141/141/141 166/166/166 165/165/165
f 142/142/142 143/143/143 167/167/167
f 142/142/142 167/167/167 166/166/166
f 143/143/143 144/144/144 168/168/168
f 143/143/143 168/168/168 167/167/167
f 145/145/145 146/146/146 170/170/170
f 145/145/145 170/170/170 169/169/169
f 146/146/146 147/147/147 171/171/171
f 146/146/146 171/171/171 170/170/170
f 147/147/147 148/148/148 172/172/172
f 147/147/147 172/172/172 171/171/171
f 148/148/148 149/149/149 173/173/173
f 148/148/148 173/173/173 172/172/172
f 149/149/149 150/150/150 174/174/174
f 149/149/149 174/174/174 173/173/173
f 150/150/150 151/151/151 175/175/175
f 150/150/150 175/175/175 174/174/174
f 151/151/151 152/152/152 176/176/176
f 151/151/151 176/176/176 175/175/175
f 152/152/152 153/153/153 177/177/177
f 152/152/152 177/177/177 176/176/176
f 153/153/153 154/154/154 178/178/178
f 153/153/153 178/178/178 177/177/177
f 154/154/154 155/155/155 179/179/179
f 154/154/154 179/179/179 178/178/178
f 155/155/155 156/156/156 180/180/180
f 155/155/155 180/180/180 179/179/179
f 156/156/156 157/157/157 181/181/181
f 156/156/156 181/181/181 180/180/180
f 157/157/157 158/158/158 182/182/182
f 157/157/157 182/182/182 181/181/181
f 158/158/158 159/159/159 183/183/183
f 158/158/158 183/183/183 182/182/182
f 159/159/159 160/160/160 184/184/184
f 159/159/159 184/184/184 183/183/183
f 160/160/160 161/161/161 185/185/185
f 160/160/160 185/185/185 184/184/184
f 161/161/161 162/162/162 186/186/186
f 161/161/161 186/186/186 185/185/185
f 162/162/162 163/163/163 187/187/187
f 162/162/162 187/187/187 186/186/186
f 163/163/163 164/164/164 188/188/188
f 163/163/163 188/188/188 187/187/187
f 164/164/164 165/165/165 189/189/189
f 164/164/164 189/189/189 188/188/188
f 165/165/165 166/166/166 190/190/190
f 165/165/165 190/190/190 189/189/189
f 166/166/166 167/167/167 191/191/191
f 166/166/166 191/191/191 190/190/190
f 167/167/167 168/168/168 192/192/192
f 167/167/167 192/192/192 191/191/191
f 169/169/169 170/170/170 194/194/194
f 169/169/169 194/194/194 193/193/193
f 170/170/170 171/171/171 195/195/195
f 170/170/170 195/195/195 194/194/194
f 171/171/171 172/172/172 196/196/196
f 171/171/171 196/196/196 195/195/195
f 172/172/172 173/173/173 197/197/197
f 172/172/172 197/197/197 196/196/196
f 173/173/173 174/174/174 198/198/198
f 173/173/173 198/198/198 197/197/197
f 174/174/174 175/175/175 199/199/199
f 174/174/174 199/199/199 198/198/198
f 175/175/175 176/176/176 200/200/200
f 175/175/175 200/200/200 199/199/199
f 176/176/176 177/177/177 201/201/201
f 176/176/176 201/201/201 200/200/200
f 177/177/177 178/178/178 202/202/202
f 177/177/177 202/202/202 201/201/201
f 178/178/178 179/179/179 203/203/203
f 178/178/178 203/203/203 202/202/202
f 179/179/179 180/180/180 204/204/204
f 179/179/179 204/204/204 203/203/203
f 180/180/180 181/181/181 205/205/205
f 180/180/180 205/205/205 204/204/204
f 181/181/181 182/182/182 206/206/206
f 181/181/181 206/206/206 205/205/205
f 182/182/182 183/183/183 207/207/207
f 182/182/182 207/207/207 206/206/206
f 183/183/183 184/184/184 208/208/208
f 183/183/183 208/208/208 207/207/207
f 184/184/184 185/185/185 209/209/209
f 184/184/184 209/209/209 208/208/208
f 185/185/185 186/186/186 210/210/210
f 185/185/185 210/210/210 209/209/209
f 186/186/186 187/187/187 211/211/211
f 186/186/186 211/211/211 210/210/210
f 187/187/187 188/188/188 212/212/212
f 187/187/187 212/212/212 211/211/211
f 188/188/188 189/189/189 213/213/213
f 188/188/188 213/213/213 212/212/212
f 189/189/189 190/190/190 214/214/214
f 189/189/189 214/214/214 213/213/213
f 190/190/190 191/191/191 215/215/215
f 190/190/190 215/215/215 214/214/214
f 191/191/191 192/192/192 216/216/216
f 191/191/191 216/216/216 215/215/215
f 193/193/193 194/194/194 218/218/218
f 193/193/193 218/218/218 217/217/217
f 194/194/194 195/195/195 219/219/219
f 194/194/194 219/219/219 218/218/218
f 195/195/195 196/196/196 220/220/220
f 195/195/195 220/220/220 219/219/219
f 196/196/196 197/197/197 221/221/221
f 196/196/196 221/221/221 220/220/220
f 197/197/197 198/198/198 222/222/222
f 197/197/197 222/222/222 221/221/221
f 198/198/198 199/199/199 223/223/223
f 198/198/198 223/223/223 222/222/222
f 199/199/199 200/200/200 224/224/224
f 199/199/199 224/224/224 223/223/223
f 200/200/200 201/201/201 225/225/225
f 200/200/200 225/225/225 224/224/224
f 201/201/201 202/202/202 226/226/226
f 201/201/201 226/226/226 225/225/225
f 202/202/202 203/203/203 227/227/227
f 202/202/202 227/227/227 226/226/226
f 203/203/203 204/204/204 228/228/228
f 203/203/203 228/228/228 227/227/227
f 204/204/204 205/205/205 229/229/229
f 204/204/204 229/229/229 228/228/228
f 205/205/205 206/206/206 230/230/230
f 205/205/205 230/230/230 229/229/229
f 206/206/206 207/207/207 231/231/231
f 206/206/206 231/231/231 230/230/230
f 207/207/207 208/208/208 232/232/232
f 207/207/207 232/232/232 231/231/231
f 208/208/208 209/209/209 233/233/233
f 208/208/208 233/233/233 232/232/232
f 209/209/209 210/210/210 234/234/234
f 209/209/209 234/234/234 233/233/233
f 210/210/210 211/211/211 235/235/235
f 210/210/210 235/235/235 234/234/234
f 211/211/211 212/212/212 236/236/236
f 211/211/211 236/236/236 235/235/235
f 212/212/212 213/213/213 237/237/237
f 212/212/212 237/237/237 236/236/236
f 213/213/213 214/214/214 238/238/238
f 213/213/213 238/238/238 237/237/237
f 214/214/214 215/215/215 239/239/239
f 214/214/214 239/239/239 238/238/238
f 215/215/215 216/216/216 240/240/240
f 215/215/215 240/240/240 239/239/239
f 217/217/217 218/218/218 242/242/242
f 217/217/217 242/242/242 241/241/241
f 218/218/218 219/219/219 243/243/243
f 218/218/218 243/243/243 242/242/242
f 219/219/219 220/220/220 244/244/244
f 219/219/219 244/244/244 243/243/243
f 220/220/220 221/221/221 245/245/245
f 220/220/220 245/245/245 244/244/244
f 221/221/221 222/222/222 246/246/246
f 221/221/221 246/246/246 245/245/245
f 222/222/222 223/223/223 247/247/247
f 222/222/222 247/247/247 246/246/246
f 223/223/223 224/224/224 248/248/248
f 223/223/223 248/248/248 247/247/247
f 224/224/224 225/225/225 249/249/249
f 224/224/224 249/249/249 248/248/248
f 225/225/225 226/226/226 250/250/250
f 225/225/225 250/250/250 249/249/249
f 226/226/226 227/227/227 251/251/251
f 226/226/226 251/251/251 250/250/250
f 227/227/227 228/228/228 252/252/252
f 227/227/227 252/252/252 251/251/251
f 228/228/228 229/229/229 253/253/253
f 228/228/228 253/253/253 252/252/252
f 229/229/229 230/230/230 254/254/254
f 229/229/229 254/254/254 253/253/253
f 230/230/230 231/231/231 255/255/255
f 230/230/230 255/255/255 254/254/254
f 231/231/231 232/232/232 256/256/256
f 231/231/231 256/256/256 255/255/255
f 232/232/232 233/233/233 257/257/257
f 232/232/232 257/257/257 256/256/256
f 233/233/233 234/234/234 258/258/258
f 233/233/233 258/258/258 257/257/257
f 234/234/234 235/235/235 259/259/259
f 234/234/234 259/259/259 258/258/258
f 235/235/235 236/236/236 260/260/260
f 235/235/235 260/260/260 259/259/259
f 236/236/236 237/237/237 261/261/261
f 236/236/236 261/261/261 260/260/260
f 237/237/237 238/238/238 262/262/262
f 237/237/237 262/262/262 261/261/261
f 238/238/238 239/239/239 263/263/263
f 238/238/238 263/263/263 262/262/262
f 239/239/239 240/240/240 264/264/264
f 239/239/239 264/264/264 263/263/263
f 241/241/241 242/242/242 266/266/266
f 241/241/241 266/266/266 265/265/265
f 242/242/242 243/243/243 267/267/267
f 242/242/242 267/267/267 266/266/266
f 243/243/243 244/244/244 268/268/268
f 243/243/243 268/268/268 267/267/267
f 244/244/244 245/245/245 269/269/269
f 244/244/244 269/269/269 268/268/268
f 245/245/245 246/246/246 270/270/270
f 245/245/245 270/270/270 269/269/269
f 246/246/246 247/247/247 271/271/271
f 246/246/246 271/271/271 270/270/270
f 247/247/247 248/248/248 272/272/272
f 247/247/247 272/272/272 271/271/271
f 248/248/248 249/249/249 273/273/273
f 248/248/248 273/273/273 272/272/272
f 249/249/249 250/250/250 274/274/274
f 249/249/249 274/274/274 273/273/273
f 250/250/250 251/251/251 275/275/275
f 250/250/250 275/275/275 274/274/274
f 251/251/251 252/252/252 276/276/276
f 251/251/251 276/276/276 275/275/275
f 252/252/252 253/253/253 277/277/277
f 252/252/252 277/277/277 276/276/276
f 253/253/253 254/254/254 278/278/278
f 253/253/253 278/278/278 277/277/277
f 254/254/254 255/255/255 279/279/279
f 254/254/254 279/279/279 278/278/278
f 255/255/255 256/256/256 280/280/280
f 255/255/255 280/280/280 279/279/279
f 256/256/256 257/257/257 281/281/281
f 256/256/256 281/281/281 280/280/280
f 257/257/257 258/258/258 282/282/282
f 257/257/257 282/282/282 281/281/281
f 258/258/258 259/259/259 283/283/283
f 258/258/258 283/283/283 282/282/282
f 259/259/259 260/260/260 284/284/284
f 259/259/259 284/284/284 283/283/283
f 260/260/260 261/261/261 285/285/285
f 260/260/260 285/285/285 284/284/284
f 261/261/261 262/262/262 286/286/286
f 261/261/261 286/286/286 285/285/285
f 262/262/262 263/263/263 287/287/287
f 262/262/262 287/287/287 286/286/286
f 263/263/263 264/264/264 288/288/288
f 263/263/263 288/288/288 287/287/287
f 265/265/265 266/266/266 290/290/290
f 265/265/265 290/290/290 289/289/289
f 266/266/266 267/267/267 291/291/291
f 266/266/266 291/291/291 290/290/290
f 267/267/267 268/268/268 292/292/292
f 267/267/267 292/292/292 291/291/291
f 268/268/268 269/269/269 293/293/293
f 268/268/268 293/293/293 292/292/292
f 269/269/269 270/270/270 294/294/294
f 269/269/269 294/294/294 293/293/293
f 270/270/270 271/271/271 295/295/295
f 270/270/270 295/295/295 294/294/294
f 271/271/271 272/272/272 296/296/296
f 271/271/271 296/296/296 295/295/295
f 272/272/272 273/273/273 297/297/297
f 272/272/272 297/297/297 296/296/296
f 273/273/273 274/274/274 298/298/298
f 273/273/273 298/298/298 297/297/297
f 274/274/274 275/275/275 299/299/299
f 274/274/274 299/299/299 298/298/298
f 275/275/275 276/276/276 300/300/300
f 275/275/275 300/300/300 299/299/299
f 276/276/276 277/277/277 301/301/301
f 276/276/276 301/301/301 300/300/300
f 277/277/277 278/278/278 302/302/302
f 277/277/277 302/302/302 301/301/301
f 278/278/278 279/279/279 303/303/303
f 278/278/278 303/303/303 302/302/302
f 279/279/279 280/280/280 304/304/304
f 279/279/279 304/304/304 303/303/303
f 280/280/280 281/281/281 305/305/305
f 280/280/280 305/305/305 304/304/304
f 281/281/281 282/282/282 306/306/306
f 281/281/281 306/306/306 305/305/305
f 282/282/282 283/283/283 307/307/307
f 282/282/282 307/307/307 306/306/306
f 283/283/283 284/284/284 308/308/308
f 283/283/283 308/308/308 307/307/307
f 284/284/284 285/285/285 309/309/309
f 284/284/284 309/309/309 308/308/308
f 285/285/285 286/286/286 310/310/310
f 285/285/285 310/310/310 309/309/309
f 286/286/286 287/287/287 311/311/311
f 286/286/286 311/311/311 310/310/310
f 287/287/287 288/288/288 312/312/312
f 287/287/287 312/312/312 311/311/311
f 289/289/289 290/290/290 314/314/314
f 289/289/289 314/314/314 313/313/313
f 290/290/290 291/291/291 315/315/315
f 290/290/290 315/315/315 314/314/314
f 291/291/291 292/292/292 316/316/316
f 291/291/291 316/316/316 315/315/315
f 292/292/292 293/293/293 317/317/317
f 292/292/292 317/317/317 316/316/316
f 293/293/293 294/294/294 318/318/318
f 293/293/293 318/318/318 317/317/317
f 294/294/294 295/295/295 319/319/319
f 294/294/294 319/319/319 318/318/318
f 295/295/295 296/296/296 320/320/320
f 295/295/295 320/320/320 319/319/319
f 296/296/296 297/297/297 321/321/321
f 296/296/296 321/321/321 320/320/320
f 297/297/297 298/298/298 322/322/322
f 297/297/297 322/322/322 321/321/321
f 298/298/298 299/299/299 323/323/323
f 298/298/298 323/323/323 322/322/322
f 299/299/299 300/300/300 324/324/324
f 299/299/299 324/324/324 323/323/323
f 300/300/300 301/301/301 325/325/325
f 300/300/300 325/325/325 324/324/324
f 301/301/301 302/302/302 326/326/326
f 301/301/301 326/326/326 325/325/325
f 302/302/302 303/303/303 327/327/327
f 302/302/302 327/327/327 326/326/326
f 303/303/303 304/304/304 328/328/328
f 303/303/303 328/328/328 327/327/327
f 304/304/304 305/305/305 329/329/329
f 304/304/304 329/329/329 328/328/328
f 305/305/305 306/306/306 330/330/330
f 305/305/305 330/330/330 329/329/329
f 306/306/306 307/307/307 331/331/331
f 306/306/306 331/331/331 330/330/330
f 307/307/307 308/308/308 332/332/332
f 307/307/307 332/332/332 331/331/331
f 308/308/308 309/309/309 333/333/333
f 308/308/308 333/333/333 332/332/332
f 309/309/309 310/310/310 334/334/334
f 309/309/309 334/334/334 333/333/333
f 310/310/310 311/311/311 335/335/335
f 310/310/310 335/335/335 334/334/334
f 311/311/311 312/312/312 336/336/336
f 311/311/311 336/336/336 335/335/335
f 313/313/313 314/314/314 338/338/338
f 313/313/313 338/338/338 337/337/337
f 314/314/314 315/315/315 339/339/339
f 314/314/314 339/339/339 338/338/338
f 315/315/315 316/316/316 340/340/340
f 315/315/315 340/340/340 339/339/339
f 316/316/316 317/317/317 341/341/341
f 316/316/316 341/341/341 340/340/340
f 317/317/317 318/318/318 342/342/342
f 317/317/317 342/342/342 341/341/341
f 318/318/318 319/319/319 343/343/343
f 318/318/318 343/343/343 342/342/342
f 319/319/319 320/320/320 344/344/344
f 319/319/319 344/344/344 343/343/343
f 320/320/320 321/321/321 345/345/345
f 320/320/320 345/345/345 344/344/344
f 321/321/321 322/322/322 346/346/346
f 321/321/321 346/346/346 345/345/345
f 322/322/322 323/323/323 347/347/347
f 322/322/322 347/347/347 346/346/346
f 323/323/323 324/324/324 348/348/348
f 323/323/323 348/348/348 347/347/347
f 324/324/324 325/325/325 349/349/349
f 324/324/324 349/349/349 348/348/348
f 325/325/325 326/326/326 350/350/350
f 325/325/325 350/350/350 349/349/349
f 326/326/326 327/327/327 351/351/351
f 326/326/326 351/351/351 350/350/350
f 327/327/327 328/328/328 352/352/352
f 327/327/327 352/352/352 351/351/351
f 328/328/328 329/329/329 353/353/353
f 328/328/328 353/353/353 352/352/352
f 329/329/329 330/330/330 354/354/354
f 329/329/329 354/354/354 353/353/353
f 330/330/330 331/331/331 355/355/355
f 330/330/330 355/355/355 354/354/354
f 331/331/331 332/332/332 356/356/356
f 331/331/331 356/356/356 355/355/355
f 332/332/332 333/333/333 357/357/357
f 332/332/332 357/357/357 356/356/356
f 333/333/333 334/334/334 358/358/358
f 333/333/333 358/358/358 357/357/357
f 334/334/334 335/335/335 359/359/359
f 334/334/334 359/359/359 358/358/358
f 335/335/335 336/336/336 360/360/360
f 335/335/335 360/360/360 359/359/359
f 337/337/337 338/338/338 362/362/362
f 337/337/337 362/362/362 361/361/361
f 338/338/338 339/339/339 363/363/363
f 338/338/338 363/363/363 362/362/362
f 339/339/339 340/340/340 364/364/364
f 339/339/339 364/364/364 363/363/363
f 340/340/340 341/341/341 365/365/365
f 340/340/340 365/365/365 364/364/364
f 341/341/341 342/342/342 366/366/366
f 341/341/341 366/366/366 365/365/365
f 342/342/342 343/343/343 367/367/367
f 342/342/342 367/367/367 366/366/366
f 343/343/343 344/344/344 368/368/368
f 343/343/343 368/368/368 367/367/367
f 344/344/344 345/345/345 369/369/369
f 344/344/344 369/369/369 368/368/368
f 345/345/345 346/346/346 370/370/370
f 345/345/345 370/370/370 369/369/369
f 346/346/346 347/347/347 371/371/371
f 346/346/346 371/371/371 370/370/370
f 347/347/347 348/348/348 372/372/372
f 347/347/347 372/372/372 371/371/371
f 348/348/348 349/349/349 373/373/373
f 348/348/348 373/373/373 372/372/372
f 349/349/349 350/350/350 374/374/374
f 349/349/349 374/374/374 373/373/373
f 350/350/350 351/351/351 375/375/375
f 350/350/350 375/375/375 374/374/374
f 351/351/351 352/352/352 376/376/376
f 351/351/351 376/376/376 375/375/375
f 352/352/352 353/353/353 377/377/377
f 352/352/352 377/377/377 376/376/376
f 353/353/353 354/354/354 378/378/378
f 353/353/353 378/378/378 377/377/377
f 354/354/354 355/355/355 379/379/379
f 354/354/354 379/379/379 378/378/378
f 355/355/355 356/356/356 380/380/380
f 355/355/355 380/380/380 379/379/379
f 356/356/356 357/357/357 381/381/381
f 356/356/356 381/381/381 380/380/380
f 357/357/357 358/358/358 382/382/382
f 357/357/357 382/382/382 381/381/381
f 358/358/358 359/359/359 383/383/383
f 358/358/358 383/383/383 382/382/382
f 359/359/359 360/360/360 384/384/384
f 359/359/359 384/384/384 383/383/383
f 361/361/361 362/362/362 386/386/386
f 361/361/361 386/386/386 385/385/385
f 362/362/362 363/363/363 387/387/387
f 362/362/362 387/387/387 386/386/386
f 363/363/363 364/364/364 388/388/388
f 363/363/363 388/388/388 387/387/387
f 364/364/364 365/365/365 389/389/389
f 364/364/364 389/389/389 388/388/388
f 365/365/365 366/366/366 390/390/390
f 365/365/365 390/390/390 389/389/389
f 366/366/366 367/367/367 391/391/391
f 366/366/366 391/391/391 390/390/390
f 367/367/367 368/368/368 392/392/392
f 367/367/367 392/392/392 391/391/391
f 368/368/368 369/369/369 393/393/393
f 368/368/368 393/393/393 392/392/392
f 369/369/369 370/370/370 394/394/394
f 369/369/369 394/394/394 393/393/393
f 370/370/370 371/371/371 395/395/395
f 370/370/370 395/395/395 394/394/394
f 371/371/371 372/372/372 396/396/396
f 371/371/371 396/396/396 395/395/395
f 372/372/372 373/373/373 397/397/397
f 372/372/372 397/397/397 396/396/396
f 373/373/373 374/374/374 398/398/398
f 373/373/373 398/398/398 397/397/397
f 374/374/374 375/375/375 399/399/399
f 374/374/374 399/399/399 398/398/398
f 375/375/375 376/376/376 400/400/400
f 375/375/375 400/400/400 399/399/399
f 376/376/376 377/377/377 401/401/401
f 376/376/376 401/401/401 400/400/400
f 377/377/377 378/378/378 402/402/402
f 377/377/377 402/402/402 401/401/401
f 378/378/378 379/379/379 403/403/403
f 378/378/378 403/403/403 402/402/402
f 379/379/379 380/380/380 404/404/404
f 379/379/379 404/404/404 403/403/403
f 380/380/380 381/381/381 405/405/405
f 380/380/380 405/405/405 404/404/404
f 381/381/381 382/382/382 406/406/406
f 381/381/381 406/406/406 405/405/405
f 382/382/382 383/383/383 407/407/407
f 382/382/382 407/407/407 406/406/406
f 383/383/383 384/384/384 408/408/408
f 383/383/383 408/408/408 407/407/407
f 385/385/385 386/386/386 410/410/410
f 385/385/385 410/410/410 409/409/409
f 386/386/386 387/387/387 411/411/411
f 386/386/386 411/411/411 410/410/410
f 387/387/387 388/388/388 412/412/412
f 387/387/387 412/412/412 411/411/411
f 388/388/388 389/389/389 413/413/413
f 388/388/388 413/413/413 412/412/412
f 389/389/389 390/390/390 414/414/414
f 389/389/389 414/414/414 413/413/413
f 390/390/390 391/391/391 415/415/415
f 390/390/390 415/415/415 414/414/414
f 391/391/391 392/392/392 416/416/416
f 391/391/391 416/416/416 415/415/415
f 392/392/392 393/393/393 417/417/417
f 392/392/392 417/417/417 416/416/416
f 393/393/393 394/394/394 418/418/418
f 393/393/393 418/418/418 417/417/417
f 394/394/394 395/395/395 419/419/419
f 394/394/394 419/419/419 418/418/418
f 395/395/395 396/396/396 420/420/420
f 395/395/395 420/420/420 419/419/419
f 396/396/396 397/397/397 421/421/421
f 396/396/396 421/421/421 420/420/420
f 397/397/397 398/398/398 422/422/422
f 397/397/397 422/422/422 421/421/421
f 398/398/398 399/399/399 423/423/423
f 398/398/398 423/423/423 422/422/422
f 399/399/399 400/400/400 424/424/424
f 399/399/399 424/424/424 423/423/423
f 400/400/400 401/401/401 425/425/425
f 400/400/400 425/425/425 424/424/424
f 401/401/401 402/402/402 426/426/426
f 401/401/401 426/426/426 425/425/425
f 402/402/402 403/403/403 427/427/427
f 402/402/402 427/427/427 426/426/426
f 403/403/403 404/404/404 428/428/428
f 403/403/403 428/428/428 427/427/427
f 404/404/404 405/405/405 429/429/429
f 404/404/404 429/429/429 428/428/428
f 405/405/405 406/406/406 430/430/430
f 405/405/405 430/430/430 429/429/429
f 406/406/406 407/407/407 431/431/431
f 406/406/406 431/431/431 430/430/430
f 407/407/407 408/408/408 432/432/432
f 407/407/407 432/432/432 431/431/431
f 409/409/409 410/410/410 434/434/434
f 409/409/409 434/434/434 433/433/433
f 410/410/410 411/411/411 435/435/435
f 410/410/410 435/435/435 434/434/434
f 411/411/411 412/412/412 436/436/436
f 411/411/411 436/436/436 435/435/435
f 412/412/412 413/413/413 437/437/437
f 412/412/412 437/437/437 436/436/436
f 413/413/413 414/414/414 438/438/438
f 413/413/413 438/438/438 437/437/437
f 414/414/414 415/415/415 439/439/439
f 414/414/414 439/439/439 438/438/438
f 415/415/415 416/416/416 440/440/440
f 415/415/415 440/440/440 439/439/439
f 416/416/416 417/417/417 441/441/441
f 416/416/416 441/441/441 440/440/440
f 417/417/417 418/418/418 442/442/442
f 417/417/417 442/442/442 441/441/441
f 418/418/418 419/419/419 443/443/443
f 418/418/418 443/443/443 442/442/442
f 419/419/419 420/420/420 444/444/444
f 419/419/419 444/444/444 443/443/443
f 420/420/420 421/421/421 445/445/445
f 420/420/420 445/445/445 444/444/444
f 421/421/421 422/422/422 446/446/446
f 421/421/421 446/446/446 445/445/445
f 422/422/422 423/423/423 447/447/447
f 422/422/422 447/447/447 446/446/446
f 423/423/423 424/424/424 448/448/448
f 423/423/423 448/448/448 447/447/447
f 424/424/424 425/425/425 449/449/449
f 424/424/424 449/449/449 448/448/448
f 425/425/425 426/426/426 450/450/450
f 425/425/425 450/450/450 449/449/449
f 426/426/426 427/427/427 451/451/451
f 426/426/426 451/451/451 450/450/450
f 427/427/427 428/428/428 452/452/452
f 427/427/427 452/452/452 451/451/451
f 428/428/428 429/429/429 453/453/453
f 428/428/428 453/453/453 452/452/452
f 429/429/429 430/430/430 454/454/454
f 429/429/429 454/454/454 453/453/453
f 430/430/430 431/431/431 455/455/455
f 430/430/430 455/455/455 454/454/454
f 431/431/431 432/432/432 456/456/456
f 431/431/431 456/456/456 455/455/455
f 433/433/433 434/434/434 458/458/458
f 433/433/433 458/458/458 457/457/457
f 434/434/434 435/435/435 459/459/459
f 434/434/434 459/459/459 458/458/458
f 435/435/435 436/436/436 460/460/460
f 435/435/435 460/460/460 459/459/459
f 436/436/436 437/437/437 461/461/461
f 436/436/436 461/461/461 460/460/460
f 437/437/437 438/438/438 462/462/462
f 437/437/437 462/462/462 461/461/461
f 438/438/438 439/439/439 463/463/463
f 438/438/438 463/463/463 462/462/462
f 439/439/439 440/440/440 464/464/464
f 439/439/439 464/464/464 463/463/463
f 440/440/440 441/441/441 465/465/465
f 440/440/440 465/465/465 464/464/464
f 441/441/441 442/442/442 466/466/466
f 441/441/441 466/466/466 465/465/465
f 442/442/442 443/443/443 467/467/467
f 442/442/442 467/467/467 466/466/466
f 443/443/443 444/444/444 468/468/468
f 443/443/443 468/468/468 467/467/467
f 444/444/444 445/445/445 469/469/469
f 444/444/444 469/469/469 468/468/468
f 445/445/445 446/446/446 470/470/470
f 445/445/445 470/470/470 469/469/469
f 446/446/446 447/447/447 471/471/471
f 446/446/446 471/471/471 470/470/470
f 447/447/447 448/448/448 472/472/472
f 447/447/447 472/472/472 471/471/471
f 448/448/448 449/449/449 473/473/473
f 448/448/448 473/473/473 472/472/472
f 449/449/449 450/450/450 474/474/474
f 449/449/449 474/474/474 473/473/473
f 450/450/450 451/451/451 475/475/475
f 450/450/450 475/475/475 474/474/474
f 451/451/451 452/452/452 476/476/476
f 451/451/451 476/476/476 475/475/475
f 452/452/452 453/453/453 477/477/477
f 452/452/452 477/477/477 476/476/476
f 453/453/453 454/454/454 478/478/478
f 453/453/453 478/478/478 477/477/477
f 454/454/454 455/455/455 479/479/479
f 454/454/454 479/479/479 478/478/478
f 455/455/455 456/456/456 480/480/480
f 455/455/455 480/480/480 479/479/479
f 457/457/457 458/458/458 482/482/482
f 457/457/457 482/482/482 481/481/481
f 458/458/458 459/459/459 483/483/483
f 458/458/458 483/483/483 482/482/482
f 459/459/459 460/460/460 484/484/484
f 459/459/459 484/484/484 483/483/483
f 460/460/460 461/461/461 485/485/485
f 460/460/460 485/485/485 484/484/484
f 461/461/461 462/462/462 486/486/486
f 461/461/461 486/486/486 485/485/485
f 462/462/462 463/463/463 487/487/487
f 462/462/462 487/487/487 486/486/486
f 463/463/463 464/464/464 488/488/488
f 463/463/463 488/488/488 487/487/487
f 464/464/464 465/465/465 489/489/489
f 464/464/464 489/489/489 488/488/488
f 465/465/465 466/466/466 490/490/490
f 465/465/465 490/490/490 489/489/489
f 466/466/466 467/467/467 491/491/491
f 466/466/466 491/491/491 490/490/490
f 467/467/467 468/468/468 492/492/492
f 467/467/467 492/492/492 491/491/491
f 468/468/468 469/469/469 493/493/493
f 468/468/468 493/493/493 492/492/492
f 469/469/469 470/470/470 494/494/494
f 469/469/469 494/494/494 493/493/493
f 470/470/470 471/471/471 495/495/495
f 470/470/470 495/495/495 494/494/494
f 471/471/471 472/472/472 496/496/496
f 471/471/471 496/496/496 495/495/495
f 472/472/472 473/473/473 497/497/497
f 472/472/472 497/497/497 496/496/496
f 473/473/473 474/474/474 498/498/498
f 473/473/473 498/498/498 497/497/497
f 474/474/474 475/475/475 499/499/499
f 474/474/474 499/499/499 498/498/498
f 475/475/475 476/476/476 500/500/500
f 475/475/475 500/500/500 499/499/499
f 476/476/476 477/477/477 501/501/501
f 476/476/476 501/501/501 500/500/500
f 477/477/477 478/478/478 502/502/502
f 477/477/477 502/502/502 501/501/501
f 478/478/478 479/479/479 503/503/503
f 478/478/478 503/503/503 502/502/502
f 479/479/479 480/480/480 504/504/504
f 479/479/479 504/504/504 503/503/503
f 481/481/481 482/482/482 506/506/506
f 481/481/481 506/506/506 505/505/505
f 482/482/482 483/483/483 507/507/507
f 482/482/482 507/507/507 506/506/506
f 483/483/483 484/484/484 508/508/508
f 483/483/483 508/508/508 507/507/507
f 484/484/484 485/485/485 509/509/509
f 484/484/484 509/509/509 508/508/508
f 485/485/485 486/486/486 510/510/510
f 485/485/485 510/510/510 509/509/509
f 486/486/486 487/487/487 511/511/511
f 486/486/486 511/511/511 510/510/510
f 487/487/487 488/488/488 512/512/512
f 487/487/487 512/512/512 511/511/511
f 488/488/488 489/489/489 513/513/513
f 488/488/488 513/513/513 512/512/512
f 489/489/489 490/490/490 514/514/514
f 489/489/489 514/514/514 513/513/513
f 490/490/490 491/491/491 515/515/515
f 490/490/490 515/515/515 514/514/514
f 491/491/491 492/492/492 516/516/516
f 491/491/491 516/516/516 515/515/515
f 492/492/492 493/493/493 517/517/517
f 492/492/492 517/517/517 516/516/516
f 493/493/493 494/494/494 518/518/518
f 493/493/493 518/518/518 517/517/517
f 494/494/494 495/495/495 519/519/519
f 494/494/494 519/519/519 518/518/518
f 495/495/495 496/496/496 520/520/520
f 495/495/495 520/520/520 519/519/519
f 496/496/496 497/497/497 521/521/521
f 496/496/496 521/521/521 520/520/520
f 497/497/497 498/498/498 522/522/522
f 497/497/497 522/522/522 521/521/521
f 498/498/498 499/499/499 523/523/523
f 498/498/498 523/523/523 522/522/522
f 499/499/499 500/500/500 524/524/524
f 499/499/499 524/524/524 523/523/523
f 500/500/500 501/501/501 525/525/525
f 500/500/500 525/525/525 524/524/524
f 501/501/501 502/502/502 526/526/526
f 501/501/501 526/526/526 525/525/525
f 502/502/502 503/503/503 527/527/527
f 502/502/502 527/527/527 526/526/526
f 503/503/503 504/504/504 528/528/528
f 503/503/503 528/528/528 527/527/527
f 505/505/505 506/506/506 530/530/530
f 505/505/505 530/530/530 529/529/529
f 506/506/506 507/507/507 531/531/531
f 506/506/506 531/531/531 530/530/530
f 507/507/507 508/508/508 532/532/532
f 507/507/507 532/532/532 531/531/531
f 508/508/508 509/509/509 533/533/533
f 508/508/508 533/533/533 532/532/532
f 509/509/509 510/510/510 534/534/534
f 509/509/509 534/534/534 533/533/533
f 510/510/510 511/511/511 535/535/535
f 510/510/510 535/535/535 534/534/534
f 511/511/511 512/512/512 536/536/536
f 511/511/511 536/536/536 535/535/535
f 512/512/512 513/513/513 537/537/537
f 512/512/512 537/537/537 536/536/536
f 513/513/513 514/514/514 538/538/538
f 513/513/513 538/538/538 537/537/537
f 514/514/514 515/515/515 539/539/539
f 514/514/514 539/539/539 538/538/538
f 515/515/515 516/516/516 540/540/540
f 515/515/515 540/540/540 539/539/539
f 516/516/516 517/517/517 541/541/541
f 516/516/516 541/541/541 540/540/540
f 517/517/517 518/518/518 542/542/542
f 517/517/517 542/542/542 541/541/541
f 518/518/518 519/519/519 543/543/543
f 518/518/518 543/543/543 542/542/542
f 519/519/519 520/520/520 544/544/544
f 519/519/519 544/544/544 543/543/543
f 520/520/520 521/521/521 545/545/545
f 520/520/520 545/545/545 544/544/544
f 521/521/521 522/522/522 546/546/546
f 521/521/521 546/546/546 545/545/545
f 522/522/522 523/523/523 547/547/547
f 522/522/522 547/547/547 546/546/546
f 523/523/523 524/524/524 548/548/548
f 523/523/523 548/548/548 547/547/547
f 524/524/524 525/525/525 549/549/549
f 524/524/524 549/549/549 548/548/548
f 525/525/525 526/526/526 550/550/550
f 525/525/525 550/550/550 549/549/549
f 526/526/526 527/527/527 551/551/551
f 526/526/526 551/551/551 550/550/550
f 527/527/527 528/528/528 552/552/552
f 527/527/527 552/552/552 551/551/551
f 529/529/529 530/530/530 554/554/554
f 529/529/529 554/554/554 553/553/553
f 530/530/530 531/531/531 555/555/555
f 530/530/530 555/555/555 554/554/554
f 531/531/531 532/532/532 556/556/556
f 531/531/531 556/556/556 555/555/555
f 532/532/532 533/533/533 557/557/557
f 532/532/532 557/557/557 556/556/556
f 533/533/533 534/534/534 558/558/558
f 533/533/533 558/558/558 557/557/557
f 534/534/534 535/535/535 559/559/559
f 534/534/534 559/559/559 558/558/558
f 535/535/535 536/536/536 560/560/560
f 535/535/535 560/560/560 559/559/559
f 536/536/536 537/537/537 561/561/561
f 536/536/536 561/561/561 560/560/560
f 537/537/537 538/538/538 562/562/562
f 537/537/537 562/562/562 561/561/561
f 538/538/538 539/539/539 563/563/563
f 538/538/538 563/563/563 562/562/562
f 539/539/539 540/540/540 564/564/564
f 539/539/539 564/564/564 563/563/563
f 540/540/540 541/541/541 565/565/565
f 540/540/540 565/565/565 564/564/564
f 541/541/541 542/542/542 566/566/566
f 541/541/541 566/566/566 565/565/565
f 542/542/542 543/543/543 567/567/567
f 542/542/542 567/567/567 566/566/566
f 543/543/543 544/544/544 568/568/568
f 543/543/543 568/568/568 567/567/567
f 544/544/544 545/545/545 569/569/569
f 544/544/544 569/569/569 568/568/568
f 545/545/545 546/546/546 570/570/570
f 545/545/545 570/570/570 569/569/569
f 546/546/546 547/547/547 571/571/571
f 546/546/546 571/571/571 570/570/570
f 547/547/547 548/548/548 572/572/572
f 547/547/547 572/572/572 571/571/571
f 548/548/548 549/549/549 573/573/573
f 548/548/548 573/573/573 572/572/572
f 549/549/549 550/550/550 574/574/574
f 549/549/549 574/574/574 573/573/573
f 550/550/550 551/551/551 575/575/575
f 550/550/550 575/575/575 574/574/574
f 551/551/551 552/552/552 576/576/576
f 551/551/551 576/576/576 575/575/575